%TF.GenerationSoftware,KiCad,Pcbnew,10.0.0*%
%TF.CreationDate,2026-04-05T18:00:04-04:00*%
%TF.ProjectId,DiceMaster_Router,44696365-4d61-4737-9465-725f526f7574,rev?*%
%TF.SameCoordinates,Original*%
%TF.FileFunction,Copper,L2,Bot*%
%TF.FilePolarity,Positive*%
%FSLAX46Y46*%
G04 Gerber Fmt 4.6, Leading zero omitted, Abs format (unit mm)*
G04 Created by KiCad (PCBNEW 10.0.0) date 2026-04-05 18:00:04*
%MOMM*%
%LPD*%
G01*
G04 APERTURE LIST*
%TA.AperFunction,ComponentPad*%
%ADD10R,1.700000X1.700000*%
%TD*%
%TA.AperFunction,ComponentPad*%
%ADD11C,1.700000*%
%TD*%
%TA.AperFunction,ComponentPad*%
%ADD12O,1.700000X1.700000*%
%TD*%
%TA.AperFunction,ViaPad*%
%ADD13C,0.600000*%
%TD*%
%TA.AperFunction,Conductor*%
%ADD14C,0.200000*%
%TD*%
%TA.AperFunction,Conductor*%
%ADD15C,0.500000*%
%TD*%
%TA.AperFunction,Conductor*%
%ADD16C,0.300000*%
%TD*%
G04 APERTURE END LIST*
D10*
%TO.P,J1,1,Pin_1_1*%
%TO.N,/3V3*%
X73000000Y-55880000D03*
D11*
%TO.P,J1,2,Pin_2_2*%
%TO.N,5V_SWITCHED*%
X75540000Y-55880000D03*
%TO.P,J1,3,Pin_3_3*%
%TO.N,/SPI_CF_MOSI*%
X73000000Y-58420000D03*
%TO.P,J1,4,Pin_4_4*%
%TO.N,/5V*%
X75540000Y-58420000D03*
%TO.P,J1,5,Pin_5_5*%
%TO.N,/SPI_CF_SCL*%
X73000000Y-60960000D03*
%TO.P,J1,6,Pin_6_6*%
%TO.N,GND*%
X75540000Y-60960000D03*
%TO.P,J1,7,Pin_7_7*%
%TO.N,/BTM_4*%
X73000000Y-63500000D03*
%TO.P,J1,8,Pin_8_8*%
%TO.N,unconnected-(J1-Pin_8-Pad8)*%
X75540000Y-63500000D03*
%TO.P,J1,9,Pin_9_9*%
%TO.N,unconnected-(J1-Pin_9-Pad9)*%
X73000000Y-66040000D03*
%TO.P,J1,10,Pin_10_10*%
%TO.N,unconnected-(J1-Pin_10-Pad10)*%
X75540000Y-66040000D03*
%TO.P,J1,11,Pin_11_11*%
%TO.N,/IMU_INT2*%
X73000000Y-68580000D03*
%TO.P,J1,12,Pin_12_12*%
%TO.N,/SPI_BE_CS*%
X75540000Y-68580000D03*
%TO.P,J1,13,Pin_13_13*%
%TO.N,/IMU_INT1*%
X73000000Y-71120000D03*
%TO.P,J1,14,Pin_14_14*%
%TO.N,GND*%
X75540000Y-71120000D03*
%TO.P,J1,15,Pin_15_15*%
%TO.N,/IMU_I2C_SCL*%
X73000000Y-73660000D03*
%TO.P,J1,16,Pin_16_16*%
%TO.N,/IMU_I2C_SDA*%
X75540000Y-73660000D03*
%TO.P,J1,17,Pin_17_17*%
%TO.N,unconnected-(J1-Pin_17-Pad17)*%
X73000000Y-76200000D03*
%TO.P,J1,18,Pin_18_18*%
%TO.N,/BTN_1*%
X75540000Y-76200000D03*
%TO.P,J1,19,Pin_19_19*%
%TO.N,/SPI_AD_MOSI*%
X73000000Y-78740000D03*
%TO.P,J1,20,Pin_20_20*%
%TO.N,unconnected-(J1-Pin_20-Pad20)*%
X75540000Y-78740000D03*
%TO.P,J1,21,Pin_21_21*%
%TO.N,/SPI_AD_MISO*%
X73000000Y-81280000D03*
%TO.P,J1,22,Pin_22_22*%
%TO.N,/BTN_2*%
X75540000Y-81280000D03*
%TO.P,J1,23,Pin_23_23*%
%TO.N,/SPI_AD_SCL*%
X73000000Y-83820000D03*
%TO.P,J1,24,Pin_24_24*%
%TO.N,/SPI_AD_CS*%
X75540000Y-83820000D03*
%TO.P,J1,25,Pin_25_25*%
%TO.N,GND*%
X73000000Y-86360000D03*
%TO.P,J1,26,Pin_26_26*%
%TO.N,unconnected-(J1-Pin_26-Pad26)*%
X75540000Y-86360000D03*
%TO.P,J1,27,Pin_27_27*%
%TO.N,/SPI_CF_CS*%
X73000000Y-88900000D03*
%TO.P,J1,28,Pin_28_28*%
%TO.N,/SPI_CF_MISO*%
X75540000Y-88900000D03*
%TO.P,J1,29,Pin_29_29*%
%TO.N,unconnected-(J1-Pin_29-Pad29)*%
X73000000Y-91440000D03*
%TO.P,J1,30,Pin_30_30*%
%TO.N,GND*%
X75540000Y-91440000D03*
%TO.P,J1,31,Pin_31_31*%
%TO.N,unconnected-(J1-Pin_31-Pad31)*%
X73000000Y-93980000D03*
%TO.P,J1,32,Pin_32_32*%
%TO.N,/FAN_PWM*%
X75540000Y-93980000D03*
%TO.P,J1,33,Pin_33_33*%
%TO.N,unconnected-(J1-Pin_33-Pad33)*%
X73000000Y-96520000D03*
%TO.P,J1,34,Pin_34_34*%
%TO.N,GND*%
X75540000Y-96520000D03*
%TO.P,J1,35,Pin_35_35*%
%TO.N,/SPI_BE_MISO*%
X73000000Y-99060000D03*
%TO.P,J1,36,Pin_36_36*%
%TO.N,unconnected-(J1-Pin_36-Pad36)*%
X75540000Y-99060000D03*
%TO.P,J1,37,Pin_37_37*%
%TO.N,/BTN_3*%
X73000000Y-101600000D03*
%TO.P,J1,38,Pin_38_38*%
%TO.N,/SPI_BE_MOSI*%
X75540000Y-101600000D03*
%TO.P,J1,39,Pin_39_39*%
%TO.N,GND*%
X73000000Y-104140000D03*
%TO.P,J1,40,Pin_40_40*%
%TO.N,/SPI_BE_SCL*%
X75540000Y-104140000D03*
%TD*%
D12*
%TO.P,U1,12,SDX_12*%
%TO.N,/SDX*%
X93580000Y-82080000D03*
%TO.P,U1,11,SCX_11*%
%TO.N,/SCX*%
X93580000Y-79540000D03*
%TO.P,U1,10,INT1_10*%
%TO.N,/IMU_INT1*%
X93580000Y-77000000D03*
%TO.P,U1,9,INT2_9*%
%TO.N,/IMU_INT2*%
X93580000Y-74460000D03*
%TO.P,U1,8,OCS_8*%
%TO.N,/OCS*%
X93580000Y-71920000D03*
%TO.P,U1,7,SAO_7*%
%TO.N,GND*%
X83420000Y-84620000D03*
%TO.P,U1,6,CS_6*%
%TO.N,unconnected-(U1-CS-Pad6)*%
X83420000Y-82080000D03*
%TO.P,U1,5,SDA_5*%
%TO.N,/IMU_I2C_SDA*%
X83420000Y-79540000D03*
%TO.P,U1,4,SCL_4*%
%TO.N,/IMU_I2C_SCL*%
X83420000Y-77000000D03*
%TO.P,U1,3,GND_3*%
%TO.N,GND*%
X83420000Y-74460000D03*
%TO.P,U1,2,3V3_2*%
%TO.N,unconnected-(U1-3V3-Pad2)*%
X83420000Y-71920000D03*
D10*
%TO.P,U1,1,VIN_1*%
%TO.N,+3V3*%
X83420000Y-69380000D03*
%TD*%
D13*
%TO.N,/BTM_4*%
X65500000Y-68000000D03*
X68500000Y-61500000D03*
%TO.N,/SPI_CF_MOSI*%
X67500000Y-106400000D03*
%TO.N,/SPI_CF_SCL*%
X69000000Y-107000000D03*
X59000000Y-107000000D03*
%TO.N,+3V3*%
X59000000Y-108000000D03*
X69000000Y-108000000D03*
%TO.N,/SPI_CF_MOSI*%
X59000000Y-106000000D03*
%TO.N,5V_SWITCHED*%
X108500000Y-81000000D03*
X108500000Y-92000000D03*
%TO.N,/FAN_PWM*%
X87500000Y-83000000D03*
X87500000Y-76500000D03*
%TO.N,/SPI_CF_MOSI*%
X71000000Y-60000000D03*
%TO.N,/IMU_I2C_SCL*%
X80750000Y-76250000D03*
%TO.N,/SPI_AD_CS*%
X80000000Y-69000000D03*
X80000000Y-61500000D03*
%TO.N,/BTM_4*%
X61000000Y-69500000D03*
%TO.N,/BTN_3*%
X64500000Y-73500000D03*
X70500000Y-101000000D03*
%TO.N,/BTN_1*%
X65500000Y-70000000D03*
%TO.N,/BTN_2*%
X65500000Y-73500000D03*
%TO.N,/SPI_CF_MOSI*%
X69000000Y-66000000D03*
X69000000Y-63000000D03*
%TO.N,/SPI_CF_MISO*%
X85000000Y-89000000D03*
X90000000Y-86000000D03*
X98750000Y-84750000D03*
%TO.N,/SPI_CF_CS*%
X86500000Y-87000000D03*
X91000000Y-85000000D03*
X98500000Y-83500000D03*
%TO.N,/SPI_AD_CS*%
X79500000Y-79000000D03*
X79500000Y-72000000D03*
%TO.N,+3V3*%
X87500000Y-63000000D03*
X92000000Y-65400000D03*
%TO.N,/SPI_BE_CS*%
X63000000Y-82000000D03*
X65500000Y-79500000D03*
X67250000Y-68750000D03*
%TO.N,/SPI_BE_MISO*%
X64500000Y-98000000D03*
X64500000Y-91000000D03*
%TO.N,/SPI_BE_MOSI*%
X65500000Y-90000000D03*
%TO.N,/SPI_BE_SCL*%
X66500000Y-100000000D03*
X66500000Y-89000000D03*
%TO.N,5V_SWITCHED*%
X92500000Y-62000000D03*
%TO.N,/SPI_BE_CS*%
X91000000Y-66050000D03*
X83500000Y-66000000D03*
%TO.N,/IMU_INT1*%
X81000000Y-73070000D03*
X88500000Y-73000000D03*
%TO.N,GND*%
X98000000Y-76000000D03*
X98000000Y-71000000D03*
%TD*%
%TO.N,/IMU_INT2*%
D14*
X73000000Y-68580000D02*
X70420000Y-68580000D01*
X70000000Y-72286346D02*
X72713654Y-75000000D01*
X70420000Y-68580000D02*
X70000000Y-69000000D01*
X70000000Y-69000000D02*
X70000000Y-72286346D01*
X72713654Y-75000000D02*
X76500000Y-75000000D01*
X84470000Y-83470000D02*
X84500000Y-83500000D01*
X76500000Y-75000000D02*
X77500000Y-76000000D01*
X77500000Y-76000000D02*
X77500000Y-82000000D01*
X77500000Y-82000000D02*
X78970000Y-83470000D01*
X78970000Y-83470000D02*
X84470000Y-83470000D01*
X84500000Y-83500000D02*
X86000000Y-82000000D01*
X86000000Y-82000000D02*
X86000000Y-76000000D01*
X86000000Y-76000000D02*
X87540000Y-74460000D01*
X87540000Y-74460000D02*
X93580000Y-74460000D01*
%TO.N,/SPI_AD_CS*%
X79500000Y-79000000D02*
X79500000Y-72000000D01*
%TO.N,/IMU_I2C_SCL*%
X80750000Y-76250000D02*
X81500000Y-77000000D01*
X81500000Y-77000000D02*
X83420000Y-77000000D01*
%TO.N,/SPI_AD_CS*%
X80000000Y-69000000D02*
X80000000Y-61500000D01*
%TO.N,/BTN_1*%
X70500000Y-75000000D02*
X70500000Y-75326346D01*
X72523654Y-77350000D02*
X74390000Y-77350000D01*
X70500000Y-75326346D02*
X72523654Y-77350000D01*
X74390000Y-77350000D02*
X75540000Y-76200000D01*
%TO.N,/SPI_CF_MOSI*%
X69000000Y-66000000D02*
X69000000Y-63000000D01*
%TO.N,/BTM_4*%
X64000000Y-69500000D02*
X65500000Y-68000000D01*
X73000000Y-63500000D02*
X72500000Y-63500000D01*
X72500000Y-63500000D02*
X70500000Y-61500000D01*
X70500000Y-61500000D02*
X68500000Y-61500000D01*
%TO.N,/IMU_INT1*%
X81000000Y-73070000D02*
X88430000Y-73070000D01*
X88430000Y-73070000D02*
X88500000Y-73000000D01*
X81070000Y-73000000D02*
X81000000Y-73070000D01*
%TO.N,/SPI_CF_SCL*%
X59000000Y-107000000D02*
X69000000Y-107000000D01*
%TO.N,+3V3*%
X59000000Y-108000000D02*
X69000000Y-108000000D01*
%TO.N,5V_SWITCHED*%
D15*
X108500000Y-92000000D02*
X108500000Y-81000000D01*
X92500000Y-62000000D02*
X83000000Y-62000000D01*
X76880000Y-55880000D02*
X75540000Y-55880000D01*
X83000000Y-62000000D02*
X76880000Y-55880000D01*
%TO.N,/SPI_CF_CS*%
D14*
X97000000Y-85000000D02*
X98500000Y-83500000D01*
X91000000Y-85000000D02*
X97000000Y-85000000D01*
%TO.N,/SPI_BE_CS*%
X91000000Y-66050000D02*
X90950000Y-66000000D01*
X90950000Y-66000000D02*
X83500000Y-66000000D01*
%TO.N,+3V3*%
D16*
X92000000Y-65400000D02*
X89900000Y-65400000D01*
X89900000Y-65400000D02*
X87500000Y-63000000D01*
%TO.N,/FAN_PWM*%
D14*
X87500000Y-76500000D02*
X87500000Y-83000000D01*
%TO.N,/SPI_CF_MOSI*%
X71000000Y-60000000D02*
X71420000Y-60000000D01*
X71420000Y-60000000D02*
X73000000Y-58420000D01*
%TO.N,/SPI_BE_SCL*%
X66500000Y-100000000D02*
X66500000Y-89000000D01*
%TO.N,/SPI_BE_MOSI*%
X65500000Y-90000000D02*
X65500000Y-100500000D01*
X65500000Y-100500000D02*
X67990000Y-102990000D01*
X67990000Y-102990000D02*
X74150000Y-102990000D01*
X74150000Y-102990000D02*
X75540000Y-101600000D01*
%TO.N,/SPI_CF_MISO*%
X85000000Y-89000000D02*
X75640000Y-89000000D01*
X75640000Y-89000000D02*
X75540000Y-88900000D01*
X90000000Y-86000000D02*
X97500000Y-86000000D01*
X97500000Y-86000000D02*
X98750000Y-84750000D01*
%TO.N,/BTM_4*%
X64000000Y-69500000D02*
X61000000Y-69500000D01*
%TO.N,/BTN_3*%
X70500000Y-81500000D02*
X64500000Y-75500000D01*
X64500000Y-75500000D02*
X64500000Y-73500000D01*
X70500000Y-101000000D02*
X70500000Y-81500000D01*
%TO.N,/BTN_2*%
X65500000Y-73500000D02*
X65500000Y-75000000D01*
X65500000Y-75000000D02*
X70390000Y-79890000D01*
X70390000Y-79890000D02*
X74150000Y-79890000D01*
X74150000Y-79890000D02*
X75540000Y-81280000D01*
%TO.N,/BTN_1*%
X70500000Y-75000000D02*
X65500000Y-70000000D01*
%TO.N,/SPI_BE_CS*%
X67250000Y-68750000D02*
X68570000Y-67430000D01*
X68570000Y-67430000D02*
X74390000Y-67430000D01*
X74390000Y-67430000D02*
X75540000Y-68580000D01*
X65500000Y-79500000D02*
X63000000Y-82000000D01*
%TO.N,/SPI_CF_CS*%
X86500000Y-87000000D02*
X83000000Y-87000000D01*
X82250000Y-87750000D02*
X74150000Y-87750000D01*
X83000000Y-87000000D02*
X82250000Y-87750000D01*
X74150000Y-87750000D02*
X73000000Y-88900000D01*
%TO.N,/SPI_BE_MISO*%
X64500000Y-91000000D02*
X64500000Y-98000000D01*
%TO.N,/SPI_CF_MOSI*%
X67450000Y-106400000D02*
X67500000Y-106400000D01*
X59000000Y-106000000D02*
X67050000Y-106000000D01*
X67050000Y-106000000D02*
X67450000Y-106400000D01*
%TO.N,GND*%
X98000000Y-76000000D02*
X98000000Y-71000000D01*
%TD*%
%TA.AperFunction,Conductor*%
%TO.N,GND*%
G36*
X75074075Y-96712993D02*
G01*
X75139901Y-96827007D01*
X75232993Y-96920099D01*
X75347007Y-96985925D01*
X75410590Y-97002962D01*
X74778282Y-97635269D01*
X74778282Y-97635270D01*
X74832452Y-97674626D01*
X74832451Y-97674626D01*
X74841495Y-97679234D01*
X74892292Y-97727208D01*
X74909087Y-97795029D01*
X74886550Y-97861164D01*
X74841499Y-97900202D01*
X74832182Y-97904949D01*
X74660213Y-98029890D01*
X74509890Y-98180213D01*
X74384949Y-98352182D01*
X74380484Y-98360946D01*
X74332509Y-98411742D01*
X74264688Y-98428536D01*
X74198553Y-98405998D01*
X74159516Y-98360946D01*
X74155050Y-98352182D01*
X74030109Y-98180213D01*
X73879786Y-98029890D01*
X73707820Y-97904951D01*
X73707115Y-97904591D01*
X73699054Y-97900485D01*
X73648259Y-97852512D01*
X73631463Y-97784692D01*
X73653999Y-97718556D01*
X73699054Y-97679515D01*
X73707816Y-97675051D01*
X73762572Y-97635269D01*
X73879786Y-97550109D01*
X73879788Y-97550106D01*
X73879792Y-97550104D01*
X74030104Y-97399792D01*
X74030106Y-97399788D01*
X74030109Y-97399786D01*
X74115890Y-97281717D01*
X74155051Y-97227816D01*
X74159793Y-97218508D01*
X74207763Y-97167711D01*
X74275583Y-97150911D01*
X74341719Y-97173445D01*
X74380763Y-97218500D01*
X74385373Y-97227547D01*
X74424728Y-97281716D01*
X75057037Y-96649408D01*
X75074075Y-96712993D01*
G37*
%TD.AperFunction*%
%TA.AperFunction,Conductor*%
G36*
X74341444Y-94633999D02*
G01*
X74380486Y-94679056D01*
X74384951Y-94687820D01*
X74509890Y-94859786D01*
X74660213Y-95010109D01*
X74832179Y-95135048D01*
X74832181Y-95135049D01*
X74832184Y-95135051D01*
X74841493Y-95139794D01*
X74892290Y-95187766D01*
X74909087Y-95255587D01*
X74886552Y-95321722D01*
X74841505Y-95360760D01*
X74832446Y-95365376D01*
X74832440Y-95365380D01*
X74778282Y-95404727D01*
X74778282Y-95404728D01*
X75410591Y-96037037D01*
X75347007Y-96054075D01*
X75232993Y-96119901D01*
X75139901Y-96212993D01*
X75074075Y-96327007D01*
X75057037Y-96390591D01*
X74424728Y-95758282D01*
X74424727Y-95758282D01*
X74385380Y-95812440D01*
X74385376Y-95812446D01*
X74380760Y-95821505D01*
X74332781Y-95872297D01*
X74264959Y-95889087D01*
X74198826Y-95866543D01*
X74159794Y-95821493D01*
X74155051Y-95812184D01*
X74155049Y-95812181D01*
X74155048Y-95812179D01*
X74030109Y-95640213D01*
X73879786Y-95489890D01*
X73707820Y-95364951D01*
X73699600Y-95360763D01*
X73699054Y-95360485D01*
X73648259Y-95312512D01*
X73631463Y-95244692D01*
X73653999Y-95178556D01*
X73699054Y-95139515D01*
X73707816Y-95135051D01*
X73729789Y-95119086D01*
X73879786Y-95010109D01*
X73879788Y-95010106D01*
X73879792Y-95010104D01*
X74030104Y-94859792D01*
X74030106Y-94859788D01*
X74030109Y-94859786D01*
X74155048Y-94687820D01*
X74155047Y-94687820D01*
X74155051Y-94687816D01*
X74159514Y-94679054D01*
X74207488Y-94628259D01*
X74275308Y-94611463D01*
X74341444Y-94633999D01*
G37*
%TD.AperFunction*%
%TA.AperFunction,Conductor*%
G36*
X75074075Y-91632993D02*
G01*
X75139901Y-91747007D01*
X75232993Y-91840099D01*
X75347007Y-91905925D01*
X75410590Y-91922962D01*
X74778282Y-92555269D01*
X74778282Y-92555270D01*
X74832452Y-92594626D01*
X74832451Y-92594626D01*
X74841495Y-92599234D01*
X74892292Y-92647208D01*
X74909087Y-92715029D01*
X74886550Y-92781164D01*
X74841499Y-92820202D01*
X74832182Y-92824949D01*
X74660213Y-92949890D01*
X74509890Y-93100213D01*
X74384949Y-93272182D01*
X74380484Y-93280946D01*
X74332509Y-93331742D01*
X74264688Y-93348536D01*
X74198553Y-93325998D01*
X74159516Y-93280946D01*
X74155050Y-93272182D01*
X74030109Y-93100213D01*
X73879786Y-92949890D01*
X73707820Y-92824951D01*
X73707115Y-92824591D01*
X73699054Y-92820485D01*
X73648259Y-92772512D01*
X73631463Y-92704692D01*
X73653999Y-92638556D01*
X73699054Y-92599515D01*
X73707816Y-92595051D01*
X73824482Y-92510289D01*
X73879786Y-92470109D01*
X73879788Y-92470106D01*
X73879792Y-92470104D01*
X74030104Y-92319792D01*
X74030106Y-92319788D01*
X74030109Y-92319786D01*
X74115890Y-92201717D01*
X74155051Y-92147816D01*
X74159793Y-92138508D01*
X74207763Y-92087711D01*
X74275583Y-92070911D01*
X74341719Y-92093445D01*
X74380763Y-92138500D01*
X74385373Y-92147547D01*
X74424728Y-92201716D01*
X75057037Y-91569408D01*
X75074075Y-91632993D01*
G37*
%TD.AperFunction*%
%TA.AperFunction,Conductor*%
G36*
X74341444Y-89553999D02*
G01*
X74380484Y-89599054D01*
X74384591Y-89607115D01*
X74384951Y-89607820D01*
X74509890Y-89779786D01*
X74660213Y-89930109D01*
X74832179Y-90055048D01*
X74832181Y-90055049D01*
X74832184Y-90055051D01*
X74841493Y-90059794D01*
X74892290Y-90107766D01*
X74909087Y-90175587D01*
X74886552Y-90241722D01*
X74841505Y-90280760D01*
X74832446Y-90285376D01*
X74832440Y-90285380D01*
X74778282Y-90324727D01*
X74778282Y-90324728D01*
X75410591Y-90957037D01*
X75347007Y-90974075D01*
X75232993Y-91039901D01*
X75139901Y-91132993D01*
X75074075Y-91247007D01*
X75057037Y-91310591D01*
X74424728Y-90678282D01*
X74424727Y-90678282D01*
X74385380Y-90732440D01*
X74385376Y-90732446D01*
X74380760Y-90741505D01*
X74332781Y-90792297D01*
X74264959Y-90809087D01*
X74198826Y-90786543D01*
X74159794Y-90741493D01*
X74155051Y-90732184D01*
X74155049Y-90732181D01*
X74155048Y-90732179D01*
X74030109Y-90560213D01*
X73879786Y-90409890D01*
X73707820Y-90284951D01*
X73699600Y-90280763D01*
X73699054Y-90280485D01*
X73648259Y-90232512D01*
X73631463Y-90164692D01*
X73653999Y-90098556D01*
X73699054Y-90059515D01*
X73707816Y-90055051D01*
X73729789Y-90039086D01*
X73879786Y-89930109D01*
X73879788Y-89930106D01*
X73879792Y-89930104D01*
X74030104Y-89779792D01*
X74030106Y-89779788D01*
X74030109Y-89779786D01*
X74155048Y-89607820D01*
X74155047Y-89607820D01*
X74155051Y-89607816D01*
X74159514Y-89599054D01*
X74207488Y-89548259D01*
X74275308Y-89531463D01*
X74341444Y-89553999D01*
G37*
%TD.AperFunction*%
%TA.AperFunction,Conductor*%
G36*
X74341444Y-84473999D02*
G01*
X74380486Y-84519056D01*
X74384951Y-84527820D01*
X74509890Y-84699786D01*
X74660213Y-84850109D01*
X74832182Y-84975050D01*
X74840946Y-84979516D01*
X74891742Y-85027491D01*
X74908536Y-85095312D01*
X74885998Y-85161447D01*
X74840946Y-85200484D01*
X74832182Y-85204949D01*
X74660213Y-85329890D01*
X74509890Y-85480213D01*
X74384949Y-85652182D01*
X74380202Y-85661499D01*
X74332227Y-85712293D01*
X74264405Y-85729087D01*
X74198271Y-85706548D01*
X74159234Y-85661495D01*
X74154626Y-85652452D01*
X74115270Y-85598282D01*
X74115269Y-85598282D01*
X73482962Y-86230590D01*
X73465925Y-86167007D01*
X73400099Y-86052993D01*
X73307007Y-85959901D01*
X73192993Y-85894075D01*
X73129409Y-85877037D01*
X73761716Y-85244728D01*
X73707547Y-85205373D01*
X73707547Y-85205372D01*
X73698500Y-85200763D01*
X73647706Y-85152788D01*
X73630912Y-85084966D01*
X73653451Y-85018832D01*
X73698508Y-84979793D01*
X73707816Y-84975051D01*
X73787007Y-84917515D01*
X73879786Y-84850109D01*
X73879788Y-84850106D01*
X73879792Y-84850104D01*
X74030104Y-84699792D01*
X74030106Y-84699788D01*
X74030109Y-84699786D01*
X74155048Y-84527820D01*
X74155047Y-84527820D01*
X74155051Y-84527816D01*
X74159514Y-84519054D01*
X74207488Y-84468259D01*
X74275308Y-84451463D01*
X74341444Y-84473999D01*
G37*
%TD.AperFunction*%
%TA.AperFunction,Conductor*%
G36*
X87310717Y-73690185D02*
G01*
X87356472Y-73742989D01*
X87366416Y-73812147D01*
X87337391Y-73875703D01*
X87305680Y-73901886D01*
X87267938Y-73923676D01*
X87258095Y-73929360D01*
X87214689Y-73954420D01*
X87171285Y-73979479D01*
X87171282Y-73979481D01*
X85519481Y-75631282D01*
X85519479Y-75631285D01*
X85508963Y-75649500D01*
X85482658Y-75695062D01*
X85440423Y-75768215D01*
X85399499Y-75920943D01*
X85399499Y-75920944D01*
X85399499Y-75920945D01*
X85399499Y-76089046D01*
X85399500Y-76089059D01*
X85399500Y-81699902D01*
X85379815Y-81766941D01*
X85363181Y-81787583D01*
X84982181Y-82168583D01*
X84920858Y-82202068D01*
X84851166Y-82197084D01*
X84795233Y-82155212D01*
X84770816Y-82089748D01*
X84770500Y-82080902D01*
X84770500Y-81973713D01*
X84760640Y-81911463D01*
X84737246Y-81763757D01*
X84671557Y-81561588D01*
X84575051Y-81372184D01*
X84575049Y-81372181D01*
X84575048Y-81372179D01*
X84450109Y-81200213D01*
X84299786Y-81049890D01*
X84127820Y-80924951D01*
X84127115Y-80924591D01*
X84119054Y-80920485D01*
X84068259Y-80872512D01*
X84051463Y-80804692D01*
X84073999Y-80738556D01*
X84119054Y-80699515D01*
X84127816Y-80695051D01*
X84214397Y-80632147D01*
X84299786Y-80570109D01*
X84299788Y-80570106D01*
X84299792Y-80570104D01*
X84450104Y-80419792D01*
X84450106Y-80419788D01*
X84450109Y-80419786D01*
X84575048Y-80247820D01*
X84575047Y-80247820D01*
X84575051Y-80247816D01*
X84671557Y-80058412D01*
X84737246Y-79856243D01*
X84770500Y-79646287D01*
X84770500Y-79433713D01*
X84737246Y-79223757D01*
X84671557Y-79021588D01*
X84575051Y-78832184D01*
X84575049Y-78832181D01*
X84575048Y-78832179D01*
X84450109Y-78660213D01*
X84299786Y-78509890D01*
X84127820Y-78384951D01*
X84127115Y-78384591D01*
X84119054Y-78380485D01*
X84068259Y-78332512D01*
X84051463Y-78264692D01*
X84073999Y-78198556D01*
X84119054Y-78159515D01*
X84127816Y-78155051D01*
X84279642Y-78044744D01*
X84299786Y-78030109D01*
X84299788Y-78030106D01*
X84299792Y-78030104D01*
X84450104Y-77879792D01*
X84450106Y-77879788D01*
X84450109Y-77879786D01*
X84575048Y-77707820D01*
X84575047Y-77707820D01*
X84575051Y-77707816D01*
X84671557Y-77518412D01*
X84737246Y-77316243D01*
X84770500Y-77106287D01*
X84770500Y-76893713D01*
X84737246Y-76683757D01*
X84671557Y-76481588D01*
X84575051Y-76292184D01*
X84575049Y-76292181D01*
X84575048Y-76292179D01*
X84450109Y-76120213D01*
X84299786Y-75969890D01*
X84127817Y-75844949D01*
X84118504Y-75840204D01*
X84067707Y-75792230D01*
X84050912Y-75724409D01*
X84073449Y-75658274D01*
X84118507Y-75619232D01*
X84127558Y-75614620D01*
X84299459Y-75489727D01*
X84299464Y-75489723D01*
X84449723Y-75339464D01*
X84449727Y-75339459D01*
X84574620Y-75167557D01*
X84671095Y-74978217D01*
X84736757Y-74776129D01*
X84736757Y-74776126D01*
X84747231Y-74710000D01*
X83853012Y-74710000D01*
X83885925Y-74652993D01*
X83920000Y-74525826D01*
X83920000Y-74394174D01*
X83885925Y-74267007D01*
X83853012Y-74210000D01*
X84747231Y-74210000D01*
X84736757Y-74143873D01*
X84736757Y-74143870D01*
X84671095Y-73941782D01*
X84624735Y-73850795D01*
X84611839Y-73782126D01*
X84638115Y-73717385D01*
X84695222Y-73677128D01*
X84735220Y-73670500D01*
X87243678Y-73670500D01*
X87310717Y-73690185D01*
G37*
%TD.AperFunction*%
%TA.AperFunction,Conductor*%
G36*
X80241007Y-73450864D02*
G01*
X80242147Y-73450701D01*
X80272964Y-73464774D01*
X80304017Y-73478291D01*
X80305048Y-73479427D01*
X80305703Y-73479726D01*
X80318746Y-73494510D01*
X80326843Y-73503426D01*
X80327261Y-73504037D01*
X80378211Y-73580289D01*
X80382052Y-73584130D01*
X80382055Y-73584134D01*
X80489707Y-73691786D01*
X80489711Y-73691789D01*
X80620814Y-73779390D01*
X80620827Y-73779397D01*
X80699894Y-73812147D01*
X80766503Y-73839737D01*
X80865853Y-73859499D01*
X80921153Y-73870499D01*
X80921156Y-73870500D01*
X80921158Y-73870500D01*
X81078844Y-73870500D01*
X81078845Y-73870499D01*
X81233497Y-73839737D01*
X81360790Y-73787011D01*
X81379172Y-73779397D01*
X81379172Y-73779396D01*
X81379179Y-73779394D01*
X81398795Y-73766287D01*
X81510875Y-73691398D01*
X81577553Y-73670520D01*
X81579766Y-73670500D01*
X82104780Y-73670500D01*
X82171819Y-73690185D01*
X82217574Y-73742989D01*
X82227518Y-73812147D01*
X82215265Y-73850795D01*
X82168904Y-73941782D01*
X82103242Y-74143870D01*
X82103242Y-74143873D01*
X82092769Y-74210000D01*
X82986988Y-74210000D01*
X82954075Y-74267007D01*
X82920000Y-74394174D01*
X82920000Y-74525826D01*
X82954075Y-74652993D01*
X82986988Y-74710000D01*
X82092769Y-74710000D01*
X82103242Y-74776126D01*
X82103242Y-74776129D01*
X82168904Y-74978217D01*
X82265379Y-75167557D01*
X82390272Y-75339459D01*
X82390276Y-75339464D01*
X82540535Y-75489723D01*
X82540540Y-75489727D01*
X82712444Y-75614622D01*
X82721495Y-75619234D01*
X82772292Y-75667208D01*
X82789087Y-75735029D01*
X82766550Y-75801164D01*
X82721499Y-75840202D01*
X82712182Y-75844949D01*
X82540213Y-75969890D01*
X82389890Y-76120213D01*
X82264948Y-76292184D01*
X82264947Y-76292185D01*
X82244765Y-76331795D01*
X82196791Y-76382591D01*
X82134281Y-76399500D01*
X81800097Y-76399500D01*
X81733058Y-76379815D01*
X81712416Y-76363181D01*
X81584574Y-76235339D01*
X81551089Y-76174016D01*
X81550638Y-76171849D01*
X81519738Y-76016510D01*
X81519737Y-76016503D01*
X81519735Y-76016498D01*
X81459397Y-75870827D01*
X81459390Y-75870814D01*
X81371789Y-75739711D01*
X81371786Y-75739707D01*
X81260292Y-75628213D01*
X81260288Y-75628210D01*
X81129185Y-75540609D01*
X81129172Y-75540602D01*
X80983501Y-75480264D01*
X80983489Y-75480261D01*
X80828845Y-75449500D01*
X80828842Y-75449500D01*
X80671158Y-75449500D01*
X80671155Y-75449500D01*
X80516510Y-75480261D01*
X80516498Y-75480264D01*
X80370827Y-75540602D01*
X80370809Y-75540612D01*
X80293390Y-75592342D01*
X80226713Y-75613220D01*
X80159333Y-75594735D01*
X80112643Y-75542756D01*
X80100500Y-75489240D01*
X80100500Y-73573439D01*
X80110043Y-73540938D01*
X80119005Y-73508272D01*
X80119861Y-73507502D01*
X80120185Y-73506400D01*
X80145754Y-73484243D01*
X80170983Y-73461582D01*
X80172120Y-73461397D01*
X80172989Y-73460645D01*
X80206511Y-73455824D01*
X80239953Y-73450406D01*
X80241007Y-73450864D01*
G37*
%TD.AperFunction*%
%TA.AperFunction,Conductor*%
G36*
X75074075Y-71312993D02*
G01*
X75139901Y-71427007D01*
X75232993Y-71520099D01*
X75347007Y-71585925D01*
X75410590Y-71602962D01*
X74778282Y-72235269D01*
X74778282Y-72235270D01*
X74832452Y-72274626D01*
X74832451Y-72274626D01*
X74841495Y-72279234D01*
X74892292Y-72327208D01*
X74909087Y-72395029D01*
X74886550Y-72461164D01*
X74841499Y-72500202D01*
X74832182Y-72504949D01*
X74660213Y-72629890D01*
X74509890Y-72780213D01*
X74384949Y-72952182D01*
X74380484Y-72960946D01*
X74332509Y-73011742D01*
X74264688Y-73028536D01*
X74198553Y-73005998D01*
X74159516Y-72960946D01*
X74155050Y-72952182D01*
X74030109Y-72780213D01*
X73879786Y-72629890D01*
X73707820Y-72504951D01*
X73707115Y-72504591D01*
X73699054Y-72500485D01*
X73648259Y-72452512D01*
X73631463Y-72384692D01*
X73653999Y-72318556D01*
X73699054Y-72279515D01*
X73707816Y-72275051D01*
X73765022Y-72233489D01*
X73879786Y-72150109D01*
X73879788Y-72150106D01*
X73879792Y-72150104D01*
X74030104Y-71999792D01*
X74030106Y-71999788D01*
X74030109Y-71999786D01*
X74115890Y-71881717D01*
X74155051Y-71827816D01*
X74159793Y-71818508D01*
X74207763Y-71767711D01*
X74275583Y-71750911D01*
X74341719Y-71773445D01*
X74380763Y-71818500D01*
X74385373Y-71827547D01*
X74424728Y-71881716D01*
X75057037Y-71249408D01*
X75074075Y-71312993D01*
G37*
%TD.AperFunction*%
%TA.AperFunction,Conductor*%
G36*
X74341444Y-69233999D02*
G01*
X74380486Y-69279056D01*
X74384951Y-69287820D01*
X74509890Y-69459786D01*
X74660213Y-69610109D01*
X74832179Y-69735048D01*
X74832181Y-69735049D01*
X74832184Y-69735051D01*
X74841493Y-69739794D01*
X74892290Y-69787766D01*
X74909087Y-69855587D01*
X74886552Y-69921722D01*
X74841505Y-69960760D01*
X74832446Y-69965376D01*
X74832440Y-69965380D01*
X74778282Y-70004727D01*
X74778282Y-70004728D01*
X75410591Y-70637037D01*
X75347007Y-70654075D01*
X75232993Y-70719901D01*
X75139901Y-70812993D01*
X75074075Y-70927007D01*
X75057037Y-70990591D01*
X74424728Y-70358282D01*
X74424727Y-70358282D01*
X74385380Y-70412440D01*
X74385376Y-70412446D01*
X74380760Y-70421505D01*
X74332781Y-70472297D01*
X74264959Y-70489087D01*
X74198826Y-70466543D01*
X74159794Y-70421493D01*
X74155051Y-70412184D01*
X74155049Y-70412181D01*
X74155048Y-70412179D01*
X74030109Y-70240213D01*
X73879786Y-70089890D01*
X73707820Y-69964951D01*
X73699600Y-69960763D01*
X73699054Y-69960485D01*
X73648259Y-69912512D01*
X73631463Y-69844692D01*
X73653999Y-69778556D01*
X73699054Y-69739515D01*
X73707816Y-69735051D01*
X73743136Y-69709390D01*
X73879786Y-69610109D01*
X73879788Y-69610106D01*
X73879792Y-69610104D01*
X74030104Y-69459792D01*
X74030106Y-69459788D01*
X74030109Y-69459786D01*
X74155048Y-69287820D01*
X74155047Y-69287820D01*
X74155051Y-69287816D01*
X74159514Y-69279054D01*
X74207488Y-69228259D01*
X74275308Y-69211463D01*
X74341444Y-69233999D01*
G37*
%TD.AperFunction*%
%TA.AperFunction,Conductor*%
G36*
X75074075Y-61152993D02*
G01*
X75139901Y-61267007D01*
X75232993Y-61360099D01*
X75347007Y-61425925D01*
X75410590Y-61442962D01*
X74778282Y-62075269D01*
X74778282Y-62075270D01*
X74832452Y-62114626D01*
X74832451Y-62114626D01*
X74841495Y-62119234D01*
X74892292Y-62167208D01*
X74909087Y-62235029D01*
X74886550Y-62301164D01*
X74841499Y-62340202D01*
X74832182Y-62344949D01*
X74660213Y-62469890D01*
X74509890Y-62620213D01*
X74384949Y-62792182D01*
X74380484Y-62800946D01*
X74332509Y-62851742D01*
X74264688Y-62868536D01*
X74198553Y-62845998D01*
X74159516Y-62800946D01*
X74155050Y-62792182D01*
X74030109Y-62620213D01*
X73879786Y-62469890D01*
X73707820Y-62344951D01*
X73707115Y-62344591D01*
X73699054Y-62340485D01*
X73648259Y-62292512D01*
X73631463Y-62224692D01*
X73653999Y-62158556D01*
X73699054Y-62119515D01*
X73707816Y-62115051D01*
X73729789Y-62099086D01*
X73879786Y-61990109D01*
X73879788Y-61990106D01*
X73879792Y-61990104D01*
X74030104Y-61839792D01*
X74030106Y-61839788D01*
X74030109Y-61839786D01*
X74115890Y-61721717D01*
X74155051Y-61667816D01*
X74159793Y-61658508D01*
X74207763Y-61607711D01*
X74275583Y-61590911D01*
X74341719Y-61613445D01*
X74380763Y-61658500D01*
X74385373Y-61667547D01*
X74424728Y-61721716D01*
X75057037Y-61089408D01*
X75074075Y-61152993D01*
G37*
%TD.AperFunction*%
%TA.AperFunction,Conductor*%
G36*
X74341444Y-59073999D02*
G01*
X74380486Y-59119056D01*
X74384951Y-59127820D01*
X74509890Y-59299786D01*
X74660213Y-59450109D01*
X74832179Y-59575048D01*
X74832181Y-59575049D01*
X74832184Y-59575051D01*
X74841493Y-59579794D01*
X74892290Y-59627766D01*
X74909087Y-59695587D01*
X74886552Y-59761722D01*
X74841505Y-59800760D01*
X74832446Y-59805376D01*
X74832440Y-59805380D01*
X74778282Y-59844727D01*
X74778282Y-59844728D01*
X75410591Y-60477037D01*
X75347007Y-60494075D01*
X75232993Y-60559901D01*
X75139901Y-60652993D01*
X75074075Y-60767007D01*
X75057037Y-60830591D01*
X74424728Y-60198282D01*
X74424727Y-60198282D01*
X74385380Y-60252440D01*
X74385376Y-60252446D01*
X74380760Y-60261505D01*
X74332781Y-60312297D01*
X74264959Y-60329087D01*
X74198826Y-60306543D01*
X74159794Y-60261493D01*
X74155051Y-60252184D01*
X74155049Y-60252181D01*
X74155048Y-60252179D01*
X74030109Y-60080213D01*
X73879786Y-59929890D01*
X73707820Y-59804951D01*
X73699600Y-59800763D01*
X73699054Y-59800485D01*
X73648259Y-59752512D01*
X73631463Y-59684692D01*
X73653999Y-59618556D01*
X73699054Y-59579515D01*
X73707816Y-59575051D01*
X73729789Y-59559086D01*
X73879786Y-59450109D01*
X73879788Y-59450106D01*
X73879792Y-59450104D01*
X74030104Y-59299792D01*
X74030106Y-59299788D01*
X74030109Y-59299786D01*
X74155048Y-59127820D01*
X74155047Y-59127820D01*
X74155051Y-59127816D01*
X74159514Y-59119054D01*
X74207488Y-59068259D01*
X74275308Y-59051463D01*
X74341444Y-59073999D01*
G37*
%TD.AperFunction*%
%TA.AperFunction,Conductor*%
G36*
X109442539Y-50520185D02*
G01*
X109488294Y-50572989D01*
X109499500Y-50624500D01*
X109499500Y-80697809D01*
X109479815Y-80764848D01*
X109427011Y-80810603D01*
X109357853Y-80820547D01*
X109294297Y-80791522D01*
X109260939Y-80745261D01*
X109209397Y-80620827D01*
X109209390Y-80620814D01*
X109121789Y-80489711D01*
X109121786Y-80489707D01*
X109010292Y-80378213D01*
X109010288Y-80378210D01*
X108879185Y-80290609D01*
X108879172Y-80290602D01*
X108733501Y-80230264D01*
X108733489Y-80230261D01*
X108578845Y-80199500D01*
X108578842Y-80199500D01*
X108421158Y-80199500D01*
X108421155Y-80199500D01*
X108266510Y-80230261D01*
X108266498Y-80230264D01*
X108120827Y-80290602D01*
X108120814Y-80290609D01*
X107989711Y-80378210D01*
X107989707Y-80378213D01*
X107878213Y-80489707D01*
X107878210Y-80489711D01*
X107790609Y-80620814D01*
X107790602Y-80620827D01*
X107730264Y-80766498D01*
X107730261Y-80766510D01*
X107699500Y-80921153D01*
X107699500Y-81078846D01*
X107730261Y-81233489D01*
X107730263Y-81233497D01*
X107740061Y-81257151D01*
X107749500Y-81304604D01*
X107749500Y-91695396D01*
X107740062Y-91742844D01*
X107734513Y-91756243D01*
X107730262Y-91766506D01*
X107730260Y-91766511D01*
X107699500Y-91921153D01*
X107699500Y-92078846D01*
X107730261Y-92233489D01*
X107730264Y-92233501D01*
X107790602Y-92379172D01*
X107790609Y-92379185D01*
X107878210Y-92510288D01*
X107878213Y-92510292D01*
X107989707Y-92621786D01*
X107989711Y-92621789D01*
X108120814Y-92709390D01*
X108120827Y-92709397D01*
X108266498Y-92769735D01*
X108266503Y-92769737D01*
X108421153Y-92800499D01*
X108421156Y-92800500D01*
X108421158Y-92800500D01*
X108578844Y-92800500D01*
X108578845Y-92800499D01*
X108733497Y-92769737D01*
X108879179Y-92709394D01*
X109010289Y-92621789D01*
X109121789Y-92510289D01*
X109209394Y-92379179D01*
X109260939Y-92254738D01*
X109304779Y-92200334D01*
X109371074Y-92178269D01*
X109438773Y-92195548D01*
X109486384Y-92246685D01*
X109499500Y-92302190D01*
X109499500Y-109375500D01*
X109479815Y-109442539D01*
X109427011Y-109488294D01*
X109375500Y-109499500D01*
X50624500Y-109499500D01*
X50557461Y-109479815D01*
X50511706Y-109427011D01*
X50500500Y-109375500D01*
X50500500Y-105921153D01*
X58199500Y-105921153D01*
X58199500Y-106078846D01*
X58230261Y-106233489D01*
X58230264Y-106233501D01*
X58290602Y-106379172D01*
X58290609Y-106379185D01*
X58325304Y-106431109D01*
X58346182Y-106497786D01*
X58327698Y-106565167D01*
X58325304Y-106568891D01*
X58290609Y-106620814D01*
X58290602Y-106620827D01*
X58230264Y-106766498D01*
X58230261Y-106766510D01*
X58199500Y-106921153D01*
X58199500Y-107078846D01*
X58230261Y-107233489D01*
X58230264Y-107233501D01*
X58290602Y-107379172D01*
X58290609Y-107379185D01*
X58325304Y-107431109D01*
X58346182Y-107497786D01*
X58327698Y-107565167D01*
X58325304Y-107568891D01*
X58290609Y-107620814D01*
X58290602Y-107620827D01*
X58230264Y-107766498D01*
X58230261Y-107766510D01*
X58199500Y-107921153D01*
X58199500Y-108078846D01*
X58230261Y-108233489D01*
X58230264Y-108233501D01*
X58290602Y-108379172D01*
X58290609Y-108379185D01*
X58378210Y-108510288D01*
X58378213Y-108510292D01*
X58489707Y-108621786D01*
X58489711Y-108621789D01*
X58620814Y-108709390D01*
X58620827Y-108709397D01*
X58766498Y-108769735D01*
X58766503Y-108769737D01*
X58921153Y-108800499D01*
X58921156Y-108800500D01*
X58921158Y-108800500D01*
X59078844Y-108800500D01*
X59078845Y-108800499D01*
X59233497Y-108769737D01*
X59379179Y-108709394D01*
X59379185Y-108709390D01*
X59510875Y-108621398D01*
X59577553Y-108600520D01*
X59579766Y-108600500D01*
X68420234Y-108600500D01*
X68487273Y-108620185D01*
X68489125Y-108621398D01*
X68620814Y-108709390D01*
X68620827Y-108709397D01*
X68766498Y-108769735D01*
X68766503Y-108769737D01*
X68921153Y-108800499D01*
X68921156Y-108800500D01*
X68921158Y-108800500D01*
X69078844Y-108800500D01*
X69078845Y-108800499D01*
X69233497Y-108769737D01*
X69379179Y-108709394D01*
X69510289Y-108621789D01*
X69621789Y-108510289D01*
X69709394Y-108379179D01*
X69769737Y-108233497D01*
X69800500Y-108078842D01*
X69800500Y-107921158D01*
X69800500Y-107921155D01*
X69800499Y-107921153D01*
X69769738Y-107766510D01*
X69769737Y-107766503D01*
X69769735Y-107766498D01*
X69709396Y-107620825D01*
X69709394Y-107620822D01*
X69709394Y-107620821D01*
X69674694Y-107568889D01*
X69653816Y-107502215D01*
X69672300Y-107434835D01*
X69674676Y-107431136D01*
X69709394Y-107379179D01*
X69769737Y-107233497D01*
X69800500Y-107078842D01*
X69800500Y-106921158D01*
X69800500Y-106921155D01*
X69800499Y-106921153D01*
X69769738Y-106766510D01*
X69769737Y-106766503D01*
X69769735Y-106766498D01*
X69709397Y-106620827D01*
X69709390Y-106620814D01*
X69621789Y-106489711D01*
X69621786Y-106489707D01*
X69510292Y-106378213D01*
X69510288Y-106378210D01*
X69379185Y-106290609D01*
X69379172Y-106290602D01*
X69233501Y-106230264D01*
X69233489Y-106230261D01*
X69078845Y-106199500D01*
X69078842Y-106199500D01*
X68921158Y-106199500D01*
X68921155Y-106199500D01*
X68766510Y-106230261D01*
X68766498Y-106230264D01*
X68620827Y-106290602D01*
X68620814Y-106290609D01*
X68489125Y-106378602D01*
X68422447Y-106399480D01*
X68420234Y-106399500D01*
X68417848Y-106399500D01*
X68350809Y-106379815D01*
X68305054Y-106327011D01*
X68296231Y-106299692D01*
X68269738Y-106166508D01*
X68269737Y-106166507D01*
X68269737Y-106166503D01*
X68233427Y-106078842D01*
X68209397Y-106020827D01*
X68209390Y-106020814D01*
X68121789Y-105889711D01*
X68121786Y-105889707D01*
X68010292Y-105778213D01*
X68010288Y-105778210D01*
X67879185Y-105690609D01*
X67879172Y-105690602D01*
X67733501Y-105630264D01*
X67733489Y-105630261D01*
X67578845Y-105599500D01*
X67578842Y-105599500D01*
X67550098Y-105599500D01*
X67483059Y-105579815D01*
X67478370Y-105576649D01*
X67469826Y-105570590D01*
X67418716Y-105519480D01*
X67310923Y-105457246D01*
X67305913Y-105454353D01*
X67305911Y-105454352D01*
X67281787Y-105440424D01*
X67281786Y-105440423D01*
X67281785Y-105440423D01*
X67129057Y-105399499D01*
X66970943Y-105399499D01*
X66963347Y-105399499D01*
X66963331Y-105399500D01*
X59579766Y-105399500D01*
X59512727Y-105379815D01*
X59510875Y-105378602D01*
X59409871Y-105311113D01*
X59379185Y-105290609D01*
X59379172Y-105290602D01*
X59233501Y-105230264D01*
X59233489Y-105230261D01*
X59078845Y-105199500D01*
X59078842Y-105199500D01*
X58921158Y-105199500D01*
X58921155Y-105199500D01*
X58766510Y-105230261D01*
X58766498Y-105230264D01*
X58620827Y-105290602D01*
X58620814Y-105290609D01*
X58489711Y-105378210D01*
X58489707Y-105378213D01*
X58378213Y-105489707D01*
X58378210Y-105489711D01*
X58290609Y-105620814D01*
X58290602Y-105620827D01*
X58230264Y-105766498D01*
X58230261Y-105766510D01*
X58199500Y-105921153D01*
X50500500Y-105921153D01*
X50500500Y-81921153D01*
X62199500Y-81921153D01*
X62199500Y-82078846D01*
X62230261Y-82233489D01*
X62230264Y-82233501D01*
X62290602Y-82379172D01*
X62290609Y-82379185D01*
X62378210Y-82510288D01*
X62378213Y-82510292D01*
X62489707Y-82621786D01*
X62489711Y-82621789D01*
X62620814Y-82709390D01*
X62620827Y-82709397D01*
X62737865Y-82757875D01*
X62766503Y-82769737D01*
X62921153Y-82800499D01*
X62921156Y-82800500D01*
X62921158Y-82800500D01*
X63078844Y-82800500D01*
X63078845Y-82800499D01*
X63233497Y-82769737D01*
X63379179Y-82709394D01*
X63510289Y-82621789D01*
X63621789Y-82510289D01*
X63709394Y-82379179D01*
X63713728Y-82368717D01*
X63723067Y-82346166D01*
X63769737Y-82233497D01*
X63798331Y-82089748D01*
X63800638Y-82078150D01*
X63833023Y-82016239D01*
X63834518Y-82014716D01*
X65514662Y-80334572D01*
X65575983Y-80301089D01*
X65578150Y-80300638D01*
X65636085Y-80289113D01*
X65733497Y-80269737D01*
X65879179Y-80209394D01*
X66010289Y-80121789D01*
X66121789Y-80010289D01*
X66209394Y-79879179D01*
X66269737Y-79733497D01*
X66300500Y-79578842D01*
X66300500Y-79421158D01*
X66300500Y-79421155D01*
X66300499Y-79421153D01*
X66292148Y-79379172D01*
X66269737Y-79266503D01*
X66256062Y-79233489D01*
X66209397Y-79120827D01*
X66209390Y-79120814D01*
X66121789Y-78989711D01*
X66121786Y-78989707D01*
X66010292Y-78878213D01*
X66010288Y-78878210D01*
X65879185Y-78790609D01*
X65879172Y-78790602D01*
X65733501Y-78730264D01*
X65733489Y-78730261D01*
X65578845Y-78699500D01*
X65578842Y-78699500D01*
X65421158Y-78699500D01*
X65421155Y-78699500D01*
X65266510Y-78730261D01*
X65266498Y-78730264D01*
X65120827Y-78790602D01*
X65120814Y-78790609D01*
X64989711Y-78878210D01*
X64989707Y-78878213D01*
X64878213Y-78989707D01*
X64878210Y-78989711D01*
X64790609Y-79120814D01*
X64790602Y-79120827D01*
X64730264Y-79266498D01*
X64730261Y-79266508D01*
X64699361Y-79421850D01*
X64666976Y-79483761D01*
X64665425Y-79485339D01*
X62985339Y-81165425D01*
X62924016Y-81198910D01*
X62921850Y-81199361D01*
X62766508Y-81230261D01*
X62766498Y-81230264D01*
X62620827Y-81290602D01*
X62620814Y-81290609D01*
X62489711Y-81378210D01*
X62489707Y-81378213D01*
X62378213Y-81489707D01*
X62378210Y-81489711D01*
X62290609Y-81620814D01*
X62290602Y-81620827D01*
X62230264Y-81766498D01*
X62230261Y-81766510D01*
X62199500Y-81921153D01*
X50500500Y-81921153D01*
X50500500Y-69421153D01*
X60199500Y-69421153D01*
X60199500Y-69578846D01*
X60230261Y-69733489D01*
X60230264Y-69733501D01*
X60290602Y-69879172D01*
X60290609Y-69879185D01*
X60378210Y-70010288D01*
X60378213Y-70010292D01*
X60489707Y-70121786D01*
X60489711Y-70121789D01*
X60620814Y-70209390D01*
X60620827Y-70209397D01*
X60695225Y-70240213D01*
X60766503Y-70269737D01*
X60921153Y-70300499D01*
X60921156Y-70300500D01*
X60921158Y-70300500D01*
X61078844Y-70300500D01*
X61078845Y-70300499D01*
X61233497Y-70269737D01*
X61379179Y-70209394D01*
X61379185Y-70209390D01*
X61510875Y-70121398D01*
X61577553Y-70100520D01*
X61579766Y-70100500D01*
X63913331Y-70100500D01*
X63913347Y-70100501D01*
X63920943Y-70100501D01*
X64079054Y-70100501D01*
X64079057Y-70100501D01*
X64231785Y-70059577D01*
X64281904Y-70030639D01*
X64368716Y-69980520D01*
X64480520Y-69868716D01*
X64480520Y-69868714D01*
X64487818Y-69861417D01*
X64549141Y-69827932D01*
X64618833Y-69832916D01*
X64674767Y-69874787D01*
X64699184Y-69940251D01*
X64699500Y-69949098D01*
X64699500Y-70078846D01*
X64730261Y-70233489D01*
X64730264Y-70233501D01*
X64790602Y-70379172D01*
X64790609Y-70379185D01*
X64878210Y-70510288D01*
X64878213Y-70510292D01*
X64989707Y-70621786D01*
X64989711Y-70621789D01*
X65120814Y-70709390D01*
X65120827Y-70709397D01*
X65254948Y-70764951D01*
X65266503Y-70769737D01*
X65331147Y-70782595D01*
X65421849Y-70800638D01*
X65483760Y-70833023D01*
X65485339Y-70834574D01*
X69863180Y-75212415D01*
X69896665Y-75273738D01*
X69899499Y-75300096D01*
X69899499Y-75405402D01*
X69940421Y-75558128D01*
X69941248Y-75559559D01*
X69941253Y-75559579D01*
X69941258Y-75559577D01*
X70019477Y-75695058D01*
X70019481Y-75695063D01*
X70138349Y-75813931D01*
X70138355Y-75813936D01*
X71989580Y-77665161D01*
X72023065Y-77726484D01*
X72018081Y-77796176D01*
X71989582Y-77840521D01*
X71969890Y-77860213D01*
X71844951Y-78032179D01*
X71748444Y-78221585D01*
X71682753Y-78423760D01*
X71649500Y-78633713D01*
X71649500Y-78846286D01*
X71677264Y-79021585D01*
X71682754Y-79056243D01*
X71703734Y-79120814D01*
X71705804Y-79127182D01*
X71707799Y-79197023D01*
X71671719Y-79256856D01*
X71609018Y-79287684D01*
X71587873Y-79289500D01*
X70690097Y-79289500D01*
X70623058Y-79269815D01*
X70602416Y-79253181D01*
X66136819Y-74787584D01*
X66103334Y-74726261D01*
X66100500Y-74699903D01*
X66100500Y-74079765D01*
X66120185Y-74012726D01*
X66121398Y-74010874D01*
X66144541Y-73976239D01*
X66209394Y-73879179D01*
X66269737Y-73733497D01*
X66300500Y-73578842D01*
X66300500Y-73421158D01*
X66300500Y-73421155D01*
X66300499Y-73421153D01*
X66277384Y-73304949D01*
X66269737Y-73266503D01*
X66231741Y-73174771D01*
X66209397Y-73120827D01*
X66209390Y-73120814D01*
X66121789Y-72989711D01*
X66121786Y-72989707D01*
X66010292Y-72878213D01*
X66010288Y-72878210D01*
X65879185Y-72790609D01*
X65879172Y-72790602D01*
X65733501Y-72730264D01*
X65733489Y-72730261D01*
X65578845Y-72699500D01*
X65578842Y-72699500D01*
X65421158Y-72699500D01*
X65421155Y-72699500D01*
X65266510Y-72730261D01*
X65266498Y-72730264D01*
X65120827Y-72790602D01*
X65120814Y-72790609D01*
X65068891Y-72825304D01*
X65002214Y-72846182D01*
X64934833Y-72827698D01*
X64931109Y-72825304D01*
X64879185Y-72790609D01*
X64879172Y-72790602D01*
X64733501Y-72730264D01*
X64733489Y-72730261D01*
X64578845Y-72699500D01*
X64578842Y-72699500D01*
X64421158Y-72699500D01*
X64421155Y-72699500D01*
X64266510Y-72730261D01*
X64266498Y-72730264D01*
X64120827Y-72790602D01*
X64120814Y-72790609D01*
X63989711Y-72878210D01*
X63989707Y-72878213D01*
X63878213Y-72989707D01*
X63878210Y-72989711D01*
X63790609Y-73120814D01*
X63790602Y-73120827D01*
X63730264Y-73266498D01*
X63730261Y-73266510D01*
X63699500Y-73421153D01*
X63699500Y-73578846D01*
X63730261Y-73733489D01*
X63730264Y-73733501D01*
X63790602Y-73879172D01*
X63790609Y-73879185D01*
X63878602Y-74010874D01*
X63899480Y-74077551D01*
X63899500Y-74079765D01*
X63899500Y-75413330D01*
X63899499Y-75413348D01*
X63899499Y-75579054D01*
X63899498Y-75579054D01*
X63940423Y-75731785D01*
X63950041Y-75748443D01*
X63950042Y-75748446D01*
X64019475Y-75868709D01*
X64019481Y-75868717D01*
X64138349Y-75987585D01*
X64138355Y-75987590D01*
X69863181Y-81712416D01*
X69896666Y-81773739D01*
X69899500Y-81800097D01*
X69899500Y-100420234D01*
X69879815Y-100487273D01*
X69878602Y-100489125D01*
X69790609Y-100620814D01*
X69790602Y-100620827D01*
X69730264Y-100766498D01*
X69730261Y-100766510D01*
X69699500Y-100921153D01*
X69699500Y-101078846D01*
X69730261Y-101233489D01*
X69730264Y-101233501D01*
X69790602Y-101379172D01*
X69790609Y-101379185D01*
X69878210Y-101510288D01*
X69878213Y-101510292D01*
X69989707Y-101621786D01*
X69989711Y-101621789D01*
X70120814Y-101709390D01*
X70120827Y-101709397D01*
X70266498Y-101769735D01*
X70266503Y-101769737D01*
X70421153Y-101800499D01*
X70421156Y-101800500D01*
X70421158Y-101800500D01*
X70578844Y-101800500D01*
X70578845Y-101800499D01*
X70733497Y-101769737D01*
X70879179Y-101709394D01*
X71010289Y-101621789D01*
X71121789Y-101510289D01*
X71209394Y-101379179D01*
X71269737Y-101233497D01*
X71300500Y-101078842D01*
X71300500Y-100921158D01*
X71300500Y-100921155D01*
X71300499Y-100921153D01*
X71290957Y-100873181D01*
X71269737Y-100766503D01*
X71255554Y-100732261D01*
X71209397Y-100620827D01*
X71209390Y-100620814D01*
X71121398Y-100489125D01*
X71100520Y-100422447D01*
X71100500Y-100420234D01*
X71100500Y-81420944D01*
X71100500Y-81420943D01*
X71094754Y-81399500D01*
X71065576Y-81290606D01*
X71059577Y-81268216D01*
X71059576Y-81268213D01*
X70980524Y-81131290D01*
X70980521Y-81131286D01*
X70980520Y-81131284D01*
X70868716Y-81019480D01*
X70868715Y-81019479D01*
X70864385Y-81015149D01*
X70864374Y-81015139D01*
X70551416Y-80702181D01*
X70517931Y-80640858D01*
X70522915Y-80571166D01*
X70564787Y-80515233D01*
X70630251Y-80490816D01*
X70639097Y-80490500D01*
X71684219Y-80490500D01*
X71751258Y-80510185D01*
X71797013Y-80562989D01*
X71806957Y-80632147D01*
X71794704Y-80670795D01*
X71748444Y-80761585D01*
X71682753Y-80963760D01*
X71656220Y-81131284D01*
X71649500Y-81173713D01*
X71649500Y-81386287D01*
X71654989Y-81420943D01*
X71677264Y-81561585D01*
X71682754Y-81596243D01*
X71744924Y-81787583D01*
X71748444Y-81798414D01*
X71844951Y-81987820D01*
X71969890Y-82159786D01*
X72120213Y-82310109D01*
X72292182Y-82435050D01*
X72300946Y-82439516D01*
X72351742Y-82487491D01*
X72368536Y-82555312D01*
X72345998Y-82621447D01*
X72300946Y-82660484D01*
X72292182Y-82664949D01*
X72120213Y-82789890D01*
X71969890Y-82940213D01*
X71844951Y-83112179D01*
X71748444Y-83301585D01*
X71682753Y-83503760D01*
X71670861Y-83578844D01*
X71649500Y-83713713D01*
X71649500Y-83926287D01*
X71658089Y-83980516D01*
X71668003Y-84043113D01*
X71682754Y-84136243D01*
X71714133Y-84232818D01*
X71748444Y-84338414D01*
X71844951Y-84527820D01*
X71969890Y-84699786D01*
X72120213Y-84850109D01*
X72292179Y-84975048D01*
X72292181Y-84975049D01*
X72292184Y-84975051D01*
X72301493Y-84979794D01*
X72352290Y-85027766D01*
X72369087Y-85095587D01*
X72346552Y-85161722D01*
X72301505Y-85200760D01*
X72292446Y-85205376D01*
X72292440Y-85205380D01*
X72238282Y-85244727D01*
X72238282Y-85244728D01*
X72870591Y-85877037D01*
X72807007Y-85894075D01*
X72692993Y-85959901D01*
X72599901Y-86052993D01*
X72534075Y-86167007D01*
X72517037Y-86230591D01*
X71884728Y-85598282D01*
X71884727Y-85598282D01*
X71845380Y-85652439D01*
X71748904Y-85841782D01*
X71683242Y-86043869D01*
X71683242Y-86043872D01*
X71650000Y-86253753D01*
X71650000Y-86466246D01*
X71683242Y-86676127D01*
X71683242Y-86676130D01*
X71748904Y-86878217D01*
X71845375Y-87067550D01*
X71884728Y-87121716D01*
X72517037Y-86489408D01*
X72534075Y-86552993D01*
X72599901Y-86667007D01*
X72692993Y-86760099D01*
X72807007Y-86825925D01*
X72870590Y-86842962D01*
X72238282Y-87475269D01*
X72238282Y-87475270D01*
X72292452Y-87514626D01*
X72292451Y-87514626D01*
X72301495Y-87519234D01*
X72352292Y-87567208D01*
X72369087Y-87635029D01*
X72346550Y-87701164D01*
X72301499Y-87740202D01*
X72292182Y-87744949D01*
X72120213Y-87869890D01*
X71969890Y-88020213D01*
X71844951Y-88192179D01*
X71748444Y-88381585D01*
X71682753Y-88583760D01*
X71649500Y-88793713D01*
X71649500Y-89006287D01*
X71682754Y-89216243D01*
X71735697Y-89379185D01*
X71748444Y-89418414D01*
X71844951Y-89607820D01*
X71969890Y-89779786D01*
X72120213Y-89930109D01*
X72292182Y-90055050D01*
X72300946Y-90059516D01*
X72351742Y-90107491D01*
X72368536Y-90175312D01*
X72345998Y-90241447D01*
X72300946Y-90280484D01*
X72292182Y-90284949D01*
X72120213Y-90409890D01*
X71969890Y-90560213D01*
X71844951Y-90732179D01*
X71748444Y-90921585D01*
X71682753Y-91123760D01*
X71681291Y-91132993D01*
X71649500Y-91333713D01*
X71649500Y-91546287D01*
X71659534Y-91609644D01*
X71682735Y-91756127D01*
X71682754Y-91756243D01*
X71736338Y-91921158D01*
X71748444Y-91958414D01*
X71844951Y-92147820D01*
X71969890Y-92319786D01*
X72120213Y-92470109D01*
X72292182Y-92595050D01*
X72300946Y-92599516D01*
X72351742Y-92647491D01*
X72368536Y-92715312D01*
X72345998Y-92781447D01*
X72300946Y-92820484D01*
X72292182Y-92824949D01*
X72120213Y-92949890D01*
X71969890Y-93100213D01*
X71844951Y-93272179D01*
X71748444Y-93461585D01*
X71682753Y-93663760D01*
X71649500Y-93873713D01*
X71649500Y-94086286D01*
X71682753Y-94296239D01*
X71748444Y-94498414D01*
X71844951Y-94687820D01*
X71969890Y-94859786D01*
X72120213Y-95010109D01*
X72292182Y-95135050D01*
X72300946Y-95139516D01*
X72351742Y-95187491D01*
X72368536Y-95255312D01*
X72345998Y-95321447D01*
X72300946Y-95360484D01*
X72292182Y-95364949D01*
X72120213Y-95489890D01*
X71969890Y-95640213D01*
X71844951Y-95812179D01*
X71748444Y-96001585D01*
X71682753Y-96203760D01*
X71649500Y-96413713D01*
X71649500Y-96626286D01*
X71682753Y-96836239D01*
X71748444Y-97038414D01*
X71844951Y-97227820D01*
X71969890Y-97399786D01*
X72120213Y-97550109D01*
X72292182Y-97675050D01*
X72300946Y-97679516D01*
X72351742Y-97727491D01*
X72368536Y-97795312D01*
X72345998Y-97861447D01*
X72300946Y-97900484D01*
X72292182Y-97904949D01*
X72120213Y-98029890D01*
X71969890Y-98180213D01*
X71844951Y-98352179D01*
X71748444Y-98541585D01*
X71682753Y-98743760D01*
X71649500Y-98953713D01*
X71649500Y-99166286D01*
X71682753Y-99376239D01*
X71748444Y-99578414D01*
X71844951Y-99767820D01*
X71969890Y-99939786D01*
X72120213Y-100090109D01*
X72292182Y-100215050D01*
X72300946Y-100219516D01*
X72351742Y-100267491D01*
X72368536Y-100335312D01*
X72345998Y-100401447D01*
X72300946Y-100440484D01*
X72292182Y-100444949D01*
X72120213Y-100569890D01*
X71969890Y-100720213D01*
X71844951Y-100892179D01*
X71748444Y-101081585D01*
X71682753Y-101283760D01*
X71649500Y-101493713D01*
X71649500Y-101706287D01*
X71649992Y-101709394D01*
X71682753Y-101916239D01*
X71748444Y-102118414D01*
X71794704Y-102209205D01*
X71807600Y-102277875D01*
X71781323Y-102342615D01*
X71724217Y-102382872D01*
X71684219Y-102389500D01*
X68290098Y-102389500D01*
X68223059Y-102369815D01*
X68202417Y-102353181D01*
X66783740Y-100934504D01*
X66750255Y-100873181D01*
X66755239Y-100803489D01*
X66797111Y-100747556D01*
X66823962Y-100732265D01*
X66879179Y-100709394D01*
X67010289Y-100621789D01*
X67121789Y-100510289D01*
X67209394Y-100379179D01*
X67269737Y-100233497D01*
X67300500Y-100078842D01*
X67300500Y-99921158D01*
X67300500Y-99921155D01*
X67300499Y-99921153D01*
X67269738Y-99766510D01*
X67269737Y-99766503D01*
X67266652Y-99759056D01*
X67209397Y-99620827D01*
X67209390Y-99620814D01*
X67121398Y-99489125D01*
X67100520Y-99422447D01*
X67100500Y-99420234D01*
X67100500Y-89579765D01*
X67120185Y-89512726D01*
X67121398Y-89510874D01*
X67209390Y-89379185D01*
X67209390Y-89379184D01*
X67209394Y-89379179D01*
X67269737Y-89233497D01*
X67300500Y-89078842D01*
X67300500Y-88921158D01*
X67300500Y-88921155D01*
X67300499Y-88921153D01*
X67269738Y-88766510D01*
X67269737Y-88766503D01*
X67269735Y-88766498D01*
X67209397Y-88620827D01*
X67209390Y-88620814D01*
X67121789Y-88489711D01*
X67121786Y-88489707D01*
X67010292Y-88378213D01*
X67010288Y-88378210D01*
X66879185Y-88290609D01*
X66879172Y-88290602D01*
X66733501Y-88230264D01*
X66733489Y-88230261D01*
X66578845Y-88199500D01*
X66578842Y-88199500D01*
X66421158Y-88199500D01*
X66421155Y-88199500D01*
X66266510Y-88230261D01*
X66266498Y-88230264D01*
X66120827Y-88290602D01*
X66120814Y-88290609D01*
X65989711Y-88378210D01*
X65989707Y-88378213D01*
X65878213Y-88489707D01*
X65878210Y-88489711D01*
X65790609Y-88620814D01*
X65790602Y-88620827D01*
X65730264Y-88766498D01*
X65730261Y-88766510D01*
X65699500Y-88921153D01*
X65699500Y-89075500D01*
X65679815Y-89142539D01*
X65627011Y-89188294D01*
X65575500Y-89199500D01*
X65421155Y-89199500D01*
X65266510Y-89230261D01*
X65266498Y-89230264D01*
X65120827Y-89290602D01*
X65120814Y-89290609D01*
X64989711Y-89378210D01*
X64989707Y-89378213D01*
X64878213Y-89489707D01*
X64878210Y-89489711D01*
X64790609Y-89620814D01*
X64790602Y-89620827D01*
X64730264Y-89766498D01*
X64730261Y-89766510D01*
X64699500Y-89921153D01*
X64699500Y-90075500D01*
X64679815Y-90142539D01*
X64627011Y-90188294D01*
X64575500Y-90199500D01*
X64421155Y-90199500D01*
X64266510Y-90230261D01*
X64266498Y-90230264D01*
X64120827Y-90290602D01*
X64120814Y-90290609D01*
X63989711Y-90378210D01*
X63989707Y-90378213D01*
X63878213Y-90489707D01*
X63878210Y-90489711D01*
X63790609Y-90620814D01*
X63790602Y-90620827D01*
X63730264Y-90766498D01*
X63730261Y-90766510D01*
X63699500Y-90921153D01*
X63699500Y-91078846D01*
X63730261Y-91233489D01*
X63730264Y-91233501D01*
X63790602Y-91379172D01*
X63790609Y-91379185D01*
X63878602Y-91510874D01*
X63899480Y-91577551D01*
X63899500Y-91579765D01*
X63899500Y-97420234D01*
X63879815Y-97487273D01*
X63878602Y-97489125D01*
X63790609Y-97620814D01*
X63790602Y-97620827D01*
X63730264Y-97766498D01*
X63730261Y-97766510D01*
X63699500Y-97921153D01*
X63699500Y-98078846D01*
X63730261Y-98233489D01*
X63730264Y-98233501D01*
X63790602Y-98379172D01*
X63790609Y-98379185D01*
X63878210Y-98510288D01*
X63878213Y-98510292D01*
X63989707Y-98621786D01*
X63989711Y-98621789D01*
X64120814Y-98709390D01*
X64120827Y-98709397D01*
X64266498Y-98769735D01*
X64266503Y-98769737D01*
X64396982Y-98795691D01*
X64421153Y-98800499D01*
X64421156Y-98800500D01*
X64421158Y-98800500D01*
X64578844Y-98800500D01*
X64578845Y-98800499D01*
X64733497Y-98769737D01*
X64733509Y-98769731D01*
X64739324Y-98767969D01*
X64740158Y-98770720D01*
X64797359Y-98764497D01*
X64859878Y-98795691D01*
X64895608Y-98855734D01*
X64899500Y-98886555D01*
X64899500Y-100413330D01*
X64899499Y-100413348D01*
X64899499Y-100579054D01*
X64899498Y-100579054D01*
X64899499Y-100579057D01*
X64940423Y-100731785D01*
X64960468Y-100766503D01*
X64973305Y-100788737D01*
X65019479Y-100868715D01*
X65138349Y-100987585D01*
X65138354Y-100987589D01*
X67621284Y-103470520D01*
X67621286Y-103470521D01*
X67621290Y-103470524D01*
X67758209Y-103549573D01*
X67758216Y-103549577D01*
X67910943Y-103590501D01*
X67910945Y-103590501D01*
X68076654Y-103590501D01*
X68076670Y-103590500D01*
X71588398Y-103590500D01*
X71655437Y-103610185D01*
X71701192Y-103662989D01*
X71711136Y-103732147D01*
X71706329Y-103752818D01*
X71683242Y-103823869D01*
X71683242Y-103823872D01*
X71650000Y-104033753D01*
X71650000Y-104246246D01*
X71683242Y-104456127D01*
X71683242Y-104456130D01*
X71748904Y-104658217D01*
X71845375Y-104847550D01*
X71884728Y-104901716D01*
X72517036Y-104269407D01*
X72534075Y-104332993D01*
X72599901Y-104447007D01*
X72692993Y-104540099D01*
X72807007Y-104605925D01*
X72870590Y-104622962D01*
X72238282Y-105255269D01*
X72238282Y-105255270D01*
X72292449Y-105294624D01*
X72481782Y-105391095D01*
X72683870Y-105456757D01*
X72893754Y-105490000D01*
X73106246Y-105490000D01*
X73316127Y-105456757D01*
X73316130Y-105456757D01*
X73518217Y-105391095D01*
X73707554Y-105294622D01*
X73761716Y-105255270D01*
X73761717Y-105255270D01*
X73129408Y-104622962D01*
X73192993Y-104605925D01*
X73307007Y-104540099D01*
X73400099Y-104447007D01*
X73465925Y-104332993D01*
X73482962Y-104269409D01*
X74115270Y-104901717D01*
X74115270Y-104901716D01*
X74154622Y-104847555D01*
X74159232Y-104838507D01*
X74207205Y-104787709D01*
X74275025Y-104770912D01*
X74341161Y-104793447D01*
X74380204Y-104838504D01*
X74384949Y-104847817D01*
X74509890Y-105019786D01*
X74660213Y-105170109D01*
X74832179Y-105295048D01*
X74832181Y-105295049D01*
X74832184Y-105295051D01*
X75021588Y-105391557D01*
X75223757Y-105457246D01*
X75433713Y-105490500D01*
X75433714Y-105490500D01*
X75646286Y-105490500D01*
X75646287Y-105490500D01*
X75856243Y-105457246D01*
X76058412Y-105391557D01*
X76247816Y-105295051D01*
X76302572Y-105255269D01*
X76419786Y-105170109D01*
X76419788Y-105170106D01*
X76419792Y-105170104D01*
X76570104Y-105019792D01*
X76570106Y-105019788D01*
X76570109Y-105019786D01*
X76695048Y-104847820D01*
X76695050Y-104847817D01*
X76695051Y-104847816D01*
X76791557Y-104658412D01*
X76857246Y-104456243D01*
X76890500Y-104246287D01*
X76890500Y-104033713D01*
X76857246Y-103823757D01*
X76791557Y-103621588D01*
X76695051Y-103432184D01*
X76695049Y-103432181D01*
X76695048Y-103432179D01*
X76570109Y-103260213D01*
X76419786Y-103109890D01*
X76247820Y-102984951D01*
X76247115Y-102984591D01*
X76239054Y-102980485D01*
X76188259Y-102932512D01*
X76171463Y-102864692D01*
X76193999Y-102798556D01*
X76239054Y-102759515D01*
X76247816Y-102755051D01*
X76269789Y-102739086D01*
X76419786Y-102630109D01*
X76419788Y-102630106D01*
X76419792Y-102630104D01*
X76570104Y-102479792D01*
X76570106Y-102479788D01*
X76570109Y-102479786D01*
X76695048Y-102307820D01*
X76695047Y-102307820D01*
X76695051Y-102307816D01*
X76791557Y-102118412D01*
X76857246Y-101916243D01*
X76890500Y-101706287D01*
X76890500Y-101493713D01*
X76857246Y-101283757D01*
X76791557Y-101081588D01*
X76695051Y-100892184D01*
X76695049Y-100892181D01*
X76695048Y-100892179D01*
X76570109Y-100720213D01*
X76419786Y-100569890D01*
X76247820Y-100444951D01*
X76247115Y-100444591D01*
X76239054Y-100440485D01*
X76188259Y-100392512D01*
X76171463Y-100324692D01*
X76193999Y-100258556D01*
X76239054Y-100219515D01*
X76247816Y-100215051D01*
X76269789Y-100199086D01*
X76419786Y-100090109D01*
X76419788Y-100090106D01*
X76419792Y-100090104D01*
X76570104Y-99939792D01*
X76570106Y-99939788D01*
X76570109Y-99939786D01*
X76695048Y-99767820D01*
X76695047Y-99767820D01*
X76695051Y-99767816D01*
X76791557Y-99578412D01*
X76857246Y-99376243D01*
X76890500Y-99166287D01*
X76890500Y-98953713D01*
X76857246Y-98743757D01*
X76791557Y-98541588D01*
X76695051Y-98352184D01*
X76695049Y-98352181D01*
X76695048Y-98352179D01*
X76570109Y-98180213D01*
X76419786Y-98029890D01*
X76247817Y-97904949D01*
X76238504Y-97900204D01*
X76187707Y-97852230D01*
X76170912Y-97784409D01*
X76193449Y-97718274D01*
X76238507Y-97679232D01*
X76247555Y-97674622D01*
X76301716Y-97635270D01*
X76301717Y-97635270D01*
X75669408Y-97002962D01*
X75732993Y-96985925D01*
X75847007Y-96920099D01*
X75940099Y-96827007D01*
X76005925Y-96712993D01*
X76022962Y-96649409D01*
X76655270Y-97281717D01*
X76655270Y-97281716D01*
X76694622Y-97227554D01*
X76791095Y-97038217D01*
X76856757Y-96836130D01*
X76856757Y-96836127D01*
X76890000Y-96626246D01*
X76890000Y-96413753D01*
X76856757Y-96203872D01*
X76856757Y-96203869D01*
X76791095Y-96001782D01*
X76694624Y-95812449D01*
X76655270Y-95758282D01*
X76655269Y-95758282D01*
X76022962Y-96390590D01*
X76005925Y-96327007D01*
X75940099Y-96212993D01*
X75847007Y-96119901D01*
X75732993Y-96054075D01*
X75669409Y-96037037D01*
X76301716Y-95404728D01*
X76247547Y-95365373D01*
X76247547Y-95365372D01*
X76238500Y-95360763D01*
X76187706Y-95312788D01*
X76170912Y-95244966D01*
X76193451Y-95178832D01*
X76238508Y-95139793D01*
X76247816Y-95135051D01*
X76327007Y-95077515D01*
X76419786Y-95010109D01*
X76419788Y-95010106D01*
X76419792Y-95010104D01*
X76570104Y-94859792D01*
X76570106Y-94859788D01*
X76570109Y-94859786D01*
X76695048Y-94687820D01*
X76695047Y-94687820D01*
X76695051Y-94687816D01*
X76791557Y-94498412D01*
X76857246Y-94296243D01*
X76890500Y-94086287D01*
X76890500Y-93873713D01*
X76857246Y-93663757D01*
X76791557Y-93461588D01*
X76695051Y-93272184D01*
X76695049Y-93272181D01*
X76695048Y-93272179D01*
X76570109Y-93100213D01*
X76419786Y-92949890D01*
X76247817Y-92824949D01*
X76238504Y-92820204D01*
X76187707Y-92772230D01*
X76170912Y-92704409D01*
X76193449Y-92638274D01*
X76238507Y-92599232D01*
X76247555Y-92594622D01*
X76301716Y-92555270D01*
X76301717Y-92555270D01*
X75669408Y-91922962D01*
X75732993Y-91905925D01*
X75847007Y-91840099D01*
X75940099Y-91747007D01*
X76005925Y-91632993D01*
X76022962Y-91569409D01*
X76655270Y-92201717D01*
X76655270Y-92201716D01*
X76694622Y-92147554D01*
X76791095Y-91958217D01*
X76856757Y-91756130D01*
X76856757Y-91756127D01*
X76890000Y-91546246D01*
X76890000Y-91333753D01*
X76856757Y-91123872D01*
X76856757Y-91123869D01*
X76791095Y-90921782D01*
X76694624Y-90732449D01*
X76655270Y-90678282D01*
X76655269Y-90678282D01*
X76022962Y-91310590D01*
X76005925Y-91247007D01*
X75940099Y-91132993D01*
X75847007Y-91039901D01*
X75732993Y-90974075D01*
X75669409Y-90957037D01*
X76301716Y-90324728D01*
X76247547Y-90285373D01*
X76247547Y-90285372D01*
X76238500Y-90280763D01*
X76187706Y-90232788D01*
X76170912Y-90164966D01*
X76193451Y-90098832D01*
X76238508Y-90059793D01*
X76247816Y-90055051D01*
X76327007Y-89997515D01*
X76419786Y-89930109D01*
X76419788Y-89930106D01*
X76419792Y-89930104D01*
X76570104Y-89779792D01*
X76663229Y-89651614D01*
X76718558Y-89608949D01*
X76763547Y-89600500D01*
X84420234Y-89600500D01*
X84487273Y-89620185D01*
X84489125Y-89621398D01*
X84620814Y-89709390D01*
X84620827Y-89709397D01*
X84758683Y-89766498D01*
X84766503Y-89769737D01*
X84921153Y-89800499D01*
X84921156Y-89800500D01*
X84921158Y-89800500D01*
X85078844Y-89800500D01*
X85078845Y-89800499D01*
X85233497Y-89769737D01*
X85379179Y-89709394D01*
X85510289Y-89621789D01*
X85621789Y-89510289D01*
X85709394Y-89379179D01*
X85769737Y-89233497D01*
X85800500Y-89078842D01*
X85800500Y-88921158D01*
X85800500Y-88921155D01*
X85800499Y-88921153D01*
X85769738Y-88766510D01*
X85769737Y-88766503D01*
X85769735Y-88766498D01*
X85709397Y-88620827D01*
X85709390Y-88620814D01*
X85621789Y-88489711D01*
X85621786Y-88489707D01*
X85510292Y-88378213D01*
X85510288Y-88378210D01*
X85379185Y-88290609D01*
X85379172Y-88290602D01*
X85233501Y-88230264D01*
X85233489Y-88230261D01*
X85078845Y-88199500D01*
X85078842Y-88199500D01*
X84921158Y-88199500D01*
X84921155Y-88199500D01*
X84766510Y-88230261D01*
X84766498Y-88230264D01*
X84620827Y-88290602D01*
X84620814Y-88290609D01*
X84489125Y-88378602D01*
X84422447Y-88399480D01*
X84420234Y-88399500D01*
X82749099Y-88399500D01*
X82682060Y-88379815D01*
X82636305Y-88327011D01*
X82626361Y-88257853D01*
X82655386Y-88194297D01*
X82661416Y-88187821D01*
X82681244Y-88167991D01*
X82730520Y-88118716D01*
X82730521Y-88118713D01*
X83212416Y-87636819D01*
X83273739Y-87603334D01*
X83300097Y-87600500D01*
X85920234Y-87600500D01*
X85987273Y-87620185D01*
X85989125Y-87621398D01*
X86120814Y-87709390D01*
X86120827Y-87709397D01*
X86266498Y-87769735D01*
X86266503Y-87769737D01*
X86421153Y-87800499D01*
X86421156Y-87800500D01*
X86421158Y-87800500D01*
X86578844Y-87800500D01*
X86578845Y-87800499D01*
X86733497Y-87769737D01*
X86879179Y-87709394D01*
X87010289Y-87621789D01*
X87121789Y-87510289D01*
X87209394Y-87379179D01*
X87269737Y-87233497D01*
X87300500Y-87078842D01*
X87300500Y-86921158D01*
X87300500Y-86921155D01*
X87300499Y-86921153D01*
X87269738Y-86766510D01*
X87269737Y-86766503D01*
X87246080Y-86709390D01*
X87209397Y-86620827D01*
X87209390Y-86620814D01*
X87121789Y-86489711D01*
X87121786Y-86489707D01*
X87010292Y-86378213D01*
X87010288Y-86378210D01*
X86879185Y-86290609D01*
X86879172Y-86290602D01*
X86733501Y-86230264D01*
X86733489Y-86230261D01*
X86578845Y-86199500D01*
X86578842Y-86199500D01*
X86421158Y-86199500D01*
X86421155Y-86199500D01*
X86266510Y-86230261D01*
X86266498Y-86230264D01*
X86120827Y-86290602D01*
X86120814Y-86290609D01*
X85989125Y-86378602D01*
X85922447Y-86399480D01*
X85920234Y-86399500D01*
X82920943Y-86399500D01*
X82768212Y-86440423D01*
X82736836Y-86458540D01*
X82736833Y-86458541D01*
X82631290Y-86519475D01*
X82631284Y-86519480D01*
X82519480Y-86631284D01*
X82519478Y-86631286D01*
X82272351Y-86878414D01*
X82037584Y-87113181D01*
X81976261Y-87146666D01*
X81949903Y-87149500D01*
X76855781Y-87149500D01*
X76788742Y-87129815D01*
X76742987Y-87077011D01*
X76733043Y-87007853D01*
X76745296Y-86969205D01*
X76755230Y-86949706D01*
X76791557Y-86878412D01*
X76857246Y-86676243D01*
X76890500Y-86466287D01*
X76890500Y-86253713D01*
X76857246Y-86043757D01*
X76791557Y-85841588D01*
X76695051Y-85652184D01*
X76695049Y-85652181D01*
X76695048Y-85652179D01*
X76570109Y-85480213D01*
X76419786Y-85329890D01*
X76247820Y-85204951D01*
X76239600Y-85200763D01*
X76239054Y-85200485D01*
X76188259Y-85152512D01*
X76171463Y-85084692D01*
X76193999Y-85018556D01*
X76239054Y-84979515D01*
X76247816Y-84975051D01*
X76301392Y-84936126D01*
X76419786Y-84850109D01*
X76419788Y-84850106D01*
X76419792Y-84850104D01*
X76570104Y-84699792D01*
X76570106Y-84699788D01*
X76570109Y-84699786D01*
X76695048Y-84527820D01*
X76695047Y-84527820D01*
X76695051Y-84527816D01*
X76791557Y-84338412D01*
X76857246Y-84136243D01*
X76890500Y-83926287D01*
X76890500Y-83713713D01*
X76857246Y-83503757D01*
X76791557Y-83301588D01*
X76695051Y-83112184D01*
X76695049Y-83112181D01*
X76695048Y-83112179D01*
X76570109Y-82940213D01*
X76419786Y-82789890D01*
X76247820Y-82664951D01*
X76247115Y-82664591D01*
X76239054Y-82660485D01*
X76188259Y-82612512D01*
X76171463Y-82544692D01*
X76193999Y-82478556D01*
X76239054Y-82439515D01*
X76247816Y-82435051D01*
X76301237Y-82396239D01*
X76419786Y-82310109D01*
X76419788Y-82310106D01*
X76419792Y-82310104D01*
X76570104Y-82159792D01*
X76675277Y-82015031D01*
X76730606Y-81972367D01*
X76800219Y-81966388D01*
X76862015Y-81998993D01*
X76896372Y-82059832D01*
X76898533Y-82071726D01*
X76899497Y-82079048D01*
X76899499Y-82079055D01*
X76899499Y-82079057D01*
X76928232Y-82186287D01*
X76940423Y-82231785D01*
X76968548Y-82280499D01*
X76968550Y-82280501D01*
X77019479Y-82368714D01*
X77019481Y-82368717D01*
X77138349Y-82487585D01*
X77138355Y-82487590D01*
X78485139Y-83834374D01*
X78485149Y-83834385D01*
X78489479Y-83838715D01*
X78489480Y-83838716D01*
X78601284Y-83950520D01*
X78653247Y-83980520D01*
X78688095Y-84000639D01*
X78688097Y-84000641D01*
X78726151Y-84022611D01*
X78738215Y-84029577D01*
X78890943Y-84070501D01*
X78890946Y-84070501D01*
X79056653Y-84070501D01*
X79056669Y-84070500D01*
X82008398Y-84070500D01*
X82075437Y-84090185D01*
X82121192Y-84142989D01*
X82131136Y-84212147D01*
X82126329Y-84232818D01*
X82103242Y-84303870D01*
X82103242Y-84303873D01*
X82092769Y-84370000D01*
X82986988Y-84370000D01*
X82954075Y-84427007D01*
X82920000Y-84554174D01*
X82920000Y-84685826D01*
X82954075Y-84812993D01*
X82986988Y-84870000D01*
X82092769Y-84870000D01*
X82103242Y-84936126D01*
X82103242Y-84936129D01*
X82168904Y-85138217D01*
X82265379Y-85327557D01*
X82390272Y-85499459D01*
X82390276Y-85499464D01*
X82540535Y-85649723D01*
X82540540Y-85649727D01*
X82712442Y-85774620D01*
X82901782Y-85871095D01*
X83103871Y-85936757D01*
X83170000Y-85947231D01*
X83170000Y-85053012D01*
X83227007Y-85085925D01*
X83354174Y-85120000D01*
X83485826Y-85120000D01*
X83612993Y-85085925D01*
X83670000Y-85053012D01*
X83670000Y-85947230D01*
X83736126Y-85936757D01*
X83736129Y-85936757D01*
X83784153Y-85921153D01*
X89199500Y-85921153D01*
X89199500Y-86078846D01*
X89230261Y-86233489D01*
X89230264Y-86233501D01*
X89290602Y-86379172D01*
X89290609Y-86379185D01*
X89378210Y-86510288D01*
X89378213Y-86510292D01*
X89489707Y-86621786D01*
X89489711Y-86621789D01*
X89620814Y-86709390D01*
X89620827Y-86709397D01*
X89758683Y-86766498D01*
X89766503Y-86769737D01*
X89921153Y-86800499D01*
X89921156Y-86800500D01*
X89921158Y-86800500D01*
X90078844Y-86800500D01*
X90078845Y-86800499D01*
X90233497Y-86769737D01*
X90379179Y-86709394D01*
X90496079Y-86631284D01*
X90510875Y-86621398D01*
X90577553Y-86600520D01*
X90579766Y-86600500D01*
X97413331Y-86600500D01*
X97413347Y-86600501D01*
X97420943Y-86600501D01*
X97579054Y-86600501D01*
X97579057Y-86600501D01*
X97731785Y-86559577D01*
X97801233Y-86519481D01*
X97868716Y-86480520D01*
X97980520Y-86368716D01*
X97980520Y-86368714D01*
X97990724Y-86358511D01*
X97990727Y-86358506D01*
X98764662Y-85584572D01*
X98825983Y-85551089D01*
X98828150Y-85550638D01*
X98886085Y-85539113D01*
X98983497Y-85519737D01*
X99129179Y-85459394D01*
X99260289Y-85371789D01*
X99371789Y-85260289D01*
X99459394Y-85129179D01*
X99519737Y-84983497D01*
X99550500Y-84828842D01*
X99550500Y-84671158D01*
X99550500Y-84671155D01*
X99550499Y-84671153D01*
X99521987Y-84527816D01*
X99519737Y-84516503D01*
X99519735Y-84516498D01*
X99459397Y-84370827D01*
X99459390Y-84370814D01*
X99371789Y-84239711D01*
X99371786Y-84239707D01*
X99260292Y-84128213D01*
X99260284Y-84128207D01*
X99213168Y-84096725D01*
X99168362Y-84043113D01*
X99159655Y-83973788D01*
X99178957Y-83924731D01*
X99209389Y-83879186D01*
X99209394Y-83879179D01*
X99269737Y-83733497D01*
X99300500Y-83578842D01*
X99300500Y-83421158D01*
X99300500Y-83421155D01*
X99300499Y-83421153D01*
X99269738Y-83266510D01*
X99269738Y-83266508D01*
X99269737Y-83266503D01*
X99256062Y-83233489D01*
X99209397Y-83120827D01*
X99209390Y-83120814D01*
X99121789Y-82989711D01*
X99121786Y-82989707D01*
X99010292Y-82878213D01*
X99010288Y-82878210D01*
X98879185Y-82790609D01*
X98879172Y-82790602D01*
X98733501Y-82730264D01*
X98733489Y-82730261D01*
X98578845Y-82699500D01*
X98578842Y-82699500D01*
X98421158Y-82699500D01*
X98421155Y-82699500D01*
X98266510Y-82730261D01*
X98266498Y-82730264D01*
X98120827Y-82790602D01*
X98120814Y-82790609D01*
X97989711Y-82878210D01*
X97989707Y-82878213D01*
X97878213Y-82989707D01*
X97878210Y-82989711D01*
X97790609Y-83120814D01*
X97790602Y-83120827D01*
X97730264Y-83266498D01*
X97730261Y-83266508D01*
X97699361Y-83421850D01*
X97666976Y-83483761D01*
X97665425Y-83485339D01*
X96787584Y-84363181D01*
X96726261Y-84396666D01*
X96699903Y-84399500D01*
X91579766Y-84399500D01*
X91512727Y-84379815D01*
X91510875Y-84378602D01*
X91379185Y-84290609D01*
X91379172Y-84290602D01*
X91233501Y-84230264D01*
X91233489Y-84230261D01*
X91078845Y-84199500D01*
X91078842Y-84199500D01*
X90921158Y-84199500D01*
X90921155Y-84199500D01*
X90766510Y-84230261D01*
X90766498Y-84230264D01*
X90620827Y-84290602D01*
X90620814Y-84290609D01*
X90489711Y-84378210D01*
X90489707Y-84378213D01*
X90378213Y-84489707D01*
X90378210Y-84489711D01*
X90290609Y-84620814D01*
X90290602Y-84620827D01*
X90230264Y-84766498D01*
X90230261Y-84766510D01*
X90199500Y-84921153D01*
X90199500Y-85075500D01*
X90179815Y-85142539D01*
X90127011Y-85188294D01*
X90075500Y-85199500D01*
X89921155Y-85199500D01*
X89766510Y-85230261D01*
X89766498Y-85230264D01*
X89620827Y-85290602D01*
X89620814Y-85290609D01*
X89489711Y-85378210D01*
X89489707Y-85378213D01*
X89378213Y-85489707D01*
X89378210Y-85489711D01*
X89290609Y-85620814D01*
X89290602Y-85620827D01*
X89230264Y-85766498D01*
X89230261Y-85766510D01*
X89199500Y-85921153D01*
X83784153Y-85921153D01*
X83938217Y-85871095D01*
X84068758Y-85804581D01*
X84127557Y-85774620D01*
X84299459Y-85649727D01*
X84299464Y-85649723D01*
X84449723Y-85499464D01*
X84449727Y-85499459D01*
X84574620Y-85327557D01*
X84671095Y-85138217D01*
X84736757Y-84936129D01*
X84736757Y-84936126D01*
X84747231Y-84870000D01*
X83853012Y-84870000D01*
X83885925Y-84812993D01*
X83920000Y-84685826D01*
X83920000Y-84554174D01*
X83885925Y-84427007D01*
X83853012Y-84370000D01*
X84747231Y-84370000D01*
X84736757Y-84303873D01*
X84736757Y-84303870D01*
X84700163Y-84191246D01*
X84698168Y-84121405D01*
X84734248Y-84061572D01*
X84756087Y-84045545D01*
X84868716Y-83980519D01*
X86358506Y-82490727D01*
X86358511Y-82490724D01*
X86368714Y-82480520D01*
X86368716Y-82480520D01*
X86480520Y-82368716D01*
X86559577Y-82231784D01*
X86589534Y-82119981D01*
X86600500Y-82079058D01*
X86600500Y-81920943D01*
X86600500Y-77003439D01*
X86620185Y-76936400D01*
X86672989Y-76890645D01*
X86742147Y-76880701D01*
X86805703Y-76909726D01*
X86827602Y-76934548D01*
X86878602Y-77010874D01*
X86899480Y-77077551D01*
X86899500Y-77079765D01*
X86899500Y-82420234D01*
X86879815Y-82487273D01*
X86878602Y-82489125D01*
X86790609Y-82620814D01*
X86790602Y-82620827D01*
X86730264Y-82766498D01*
X86730261Y-82766510D01*
X86699500Y-82921153D01*
X86699500Y-83078846D01*
X86730261Y-83233489D01*
X86730264Y-83233501D01*
X86790602Y-83379172D01*
X86790609Y-83379185D01*
X86878210Y-83510288D01*
X86878213Y-83510292D01*
X86989707Y-83621786D01*
X86989711Y-83621789D01*
X87120814Y-83709390D01*
X87120827Y-83709397D01*
X87266498Y-83769735D01*
X87266503Y-83769737D01*
X87421153Y-83800499D01*
X87421156Y-83800500D01*
X87421158Y-83800500D01*
X87578844Y-83800500D01*
X87578845Y-83800499D01*
X87733497Y-83769737D01*
X87879179Y-83709394D01*
X88010289Y-83621789D01*
X88121789Y-83510289D01*
X88209394Y-83379179D01*
X88269737Y-83233497D01*
X88300500Y-83078842D01*
X88300500Y-82921158D01*
X88300500Y-82921155D01*
X88300499Y-82921153D01*
X88291957Y-82878210D01*
X88269737Y-82766503D01*
X88266163Y-82757875D01*
X88209397Y-82620827D01*
X88209390Y-82620814D01*
X88121398Y-82489125D01*
X88100520Y-82422447D01*
X88100500Y-82420234D01*
X88100500Y-77079765D01*
X88120185Y-77012726D01*
X88121398Y-77010874D01*
X88209390Y-76879185D01*
X88209390Y-76879184D01*
X88209394Y-76879179D01*
X88269737Y-76733497D01*
X88300500Y-76578842D01*
X88300500Y-76421158D01*
X88300500Y-76421155D01*
X88300499Y-76421153D01*
X88292276Y-76379815D01*
X88269737Y-76266503D01*
X88262377Y-76248735D01*
X88209397Y-76120827D01*
X88209390Y-76120814D01*
X88121789Y-75989711D01*
X88121786Y-75989707D01*
X88010292Y-75878213D01*
X88010288Y-75878210D01*
X87879185Y-75790609D01*
X87879172Y-75790602D01*
X87733501Y-75730264D01*
X87733489Y-75730261D01*
X87578845Y-75699500D01*
X87578842Y-75699500D01*
X87449097Y-75699500D01*
X87382058Y-75679815D01*
X87336303Y-75627011D01*
X87326359Y-75557853D01*
X87355384Y-75494297D01*
X87361416Y-75487819D01*
X87752416Y-75096819D01*
X87813739Y-75063334D01*
X87840097Y-75060500D01*
X92294281Y-75060500D01*
X92361320Y-75080185D01*
X92404765Y-75128205D01*
X92424947Y-75167814D01*
X92424948Y-75167815D01*
X92549890Y-75339786D01*
X92700213Y-75490109D01*
X92872182Y-75615050D01*
X92880946Y-75619516D01*
X92931742Y-75667491D01*
X92948536Y-75735312D01*
X92925998Y-75801447D01*
X92880946Y-75840484D01*
X92872182Y-75844949D01*
X92700213Y-75969890D01*
X92549890Y-76120213D01*
X92424951Y-76292179D01*
X92328444Y-76481585D01*
X92262753Y-76683760D01*
X92229500Y-76893713D01*
X92229500Y-77106286D01*
X92249111Y-77230109D01*
X92262754Y-77316243D01*
X92318705Y-77488443D01*
X92328444Y-77518414D01*
X92424951Y-77707820D01*
X92549890Y-77879786D01*
X92700213Y-78030109D01*
X92872182Y-78155050D01*
X92880946Y-78159516D01*
X92931742Y-78207491D01*
X92948536Y-78275312D01*
X92925998Y-78341447D01*
X92880946Y-78380484D01*
X92872182Y-78384949D01*
X92700213Y-78509890D01*
X92549890Y-78660213D01*
X92424951Y-78832179D01*
X92328444Y-79021585D01*
X92262753Y-79223760D01*
X92229500Y-79433713D01*
X92229500Y-79646286D01*
X92249111Y-79770109D01*
X92262754Y-79856243D01*
X92318705Y-80028443D01*
X92328444Y-80058414D01*
X92424951Y-80247820D01*
X92549890Y-80419786D01*
X92700213Y-80570109D01*
X92872182Y-80695050D01*
X92880946Y-80699516D01*
X92931742Y-80747491D01*
X92948536Y-80815312D01*
X92925998Y-80881447D01*
X92880946Y-80920484D01*
X92872182Y-80924949D01*
X92700213Y-81049890D01*
X92549890Y-81200213D01*
X92424951Y-81372179D01*
X92328444Y-81561585D01*
X92262753Y-81763760D01*
X92237859Y-81920939D01*
X92229500Y-81973713D01*
X92229500Y-82186287D01*
X92236706Y-82231783D01*
X92249111Y-82310109D01*
X92262754Y-82396243D01*
X92318705Y-82568443D01*
X92328444Y-82598414D01*
X92424951Y-82787820D01*
X92549890Y-82959786D01*
X92700213Y-83110109D01*
X92872179Y-83235048D01*
X92872181Y-83235049D01*
X92872184Y-83235051D01*
X93061588Y-83331557D01*
X93263757Y-83397246D01*
X93473713Y-83430500D01*
X93473714Y-83430500D01*
X93686286Y-83430500D01*
X93686287Y-83430500D01*
X93896243Y-83397246D01*
X94098412Y-83331557D01*
X94287816Y-83235051D01*
X94382860Y-83165998D01*
X94459786Y-83110109D01*
X94459788Y-83110106D01*
X94459792Y-83110104D01*
X94610104Y-82959792D01*
X94610106Y-82959788D01*
X94610109Y-82959786D01*
X94735048Y-82787820D01*
X94735047Y-82787820D01*
X94735051Y-82787816D01*
X94831557Y-82598412D01*
X94897246Y-82396243D01*
X94930500Y-82186287D01*
X94930500Y-81973713D01*
X94897246Y-81763757D01*
X94831557Y-81561588D01*
X94735051Y-81372184D01*
X94735049Y-81372181D01*
X94735048Y-81372179D01*
X94610109Y-81200213D01*
X94459786Y-81049890D01*
X94287820Y-80924951D01*
X94287115Y-80924591D01*
X94279054Y-80920485D01*
X94228259Y-80872512D01*
X94211463Y-80804692D01*
X94233999Y-80738556D01*
X94279054Y-80699515D01*
X94287816Y-80695051D01*
X94374397Y-80632147D01*
X94459786Y-80570109D01*
X94459788Y-80570106D01*
X94459792Y-80570104D01*
X94610104Y-80419792D01*
X94610106Y-80419788D01*
X94610109Y-80419786D01*
X94735048Y-80247820D01*
X94735047Y-80247820D01*
X94735051Y-80247816D01*
X94831557Y-80058412D01*
X94897246Y-79856243D01*
X94930500Y-79646287D01*
X94930500Y-79433713D01*
X94897246Y-79223757D01*
X94831557Y-79021588D01*
X94735051Y-78832184D01*
X94735049Y-78832181D01*
X94735048Y-78832179D01*
X94610109Y-78660213D01*
X94459786Y-78509890D01*
X94287820Y-78384951D01*
X94287115Y-78384591D01*
X94279054Y-78380485D01*
X94228259Y-78332512D01*
X94211463Y-78264692D01*
X94233999Y-78198556D01*
X94279054Y-78159515D01*
X94287816Y-78155051D01*
X94439642Y-78044744D01*
X94459786Y-78030109D01*
X94459788Y-78030106D01*
X94459792Y-78030104D01*
X94610104Y-77879792D01*
X94610106Y-77879788D01*
X94610109Y-77879786D01*
X94735048Y-77707820D01*
X94735047Y-77707820D01*
X94735051Y-77707816D01*
X94831557Y-77518412D01*
X94897246Y-77316243D01*
X94930500Y-77106287D01*
X94930500Y-76893713D01*
X94897246Y-76683757D01*
X94831557Y-76481588D01*
X94735051Y-76292184D01*
X94735049Y-76292181D01*
X94735048Y-76292179D01*
X94610109Y-76120213D01*
X94459786Y-75969890D01*
X94287820Y-75844951D01*
X94287115Y-75844591D01*
X94279054Y-75840485D01*
X94228259Y-75792512D01*
X94211463Y-75724692D01*
X94233999Y-75658556D01*
X94279054Y-75619515D01*
X94287816Y-75615051D01*
X94315779Y-75594735D01*
X94459786Y-75490109D01*
X94459788Y-75490106D01*
X94459792Y-75490104D01*
X94610104Y-75339792D01*
X94610106Y-75339788D01*
X94610109Y-75339786D01*
X94735048Y-75167820D01*
X94735047Y-75167820D01*
X94735051Y-75167816D01*
X94831557Y-74978412D01*
X94897246Y-74776243D01*
X94930500Y-74566287D01*
X94930500Y-74353713D01*
X94897246Y-74143757D01*
X94831557Y-73941588D01*
X94735051Y-73752184D01*
X94735049Y-73752181D01*
X94735048Y-73752179D01*
X94610109Y-73580213D01*
X94459786Y-73429890D01*
X94287820Y-73304951D01*
X94284966Y-73303497D01*
X94279054Y-73300485D01*
X94228259Y-73252512D01*
X94211463Y-73184692D01*
X94233999Y-73118556D01*
X94279054Y-73079515D01*
X94287816Y-73075051D01*
X94403286Y-72991158D01*
X94459786Y-72950109D01*
X94459788Y-72950106D01*
X94459792Y-72950104D01*
X94610104Y-72799792D01*
X94610106Y-72799788D01*
X94610109Y-72799786D01*
X94735048Y-72627820D01*
X94735047Y-72627820D01*
X94735051Y-72627816D01*
X94831557Y-72438412D01*
X94897246Y-72236243D01*
X94930500Y-72026287D01*
X94930500Y-71813713D01*
X94897246Y-71603757D01*
X94831557Y-71401588D01*
X94735051Y-71212184D01*
X94735049Y-71212181D01*
X94735048Y-71212179D01*
X94610109Y-71040213D01*
X94459786Y-70889890D01*
X94287820Y-70764951D01*
X94098414Y-70668444D01*
X94098413Y-70668443D01*
X94098412Y-70668443D01*
X93896243Y-70602754D01*
X93896241Y-70602753D01*
X93896240Y-70602753D01*
X93734957Y-70577208D01*
X93686287Y-70569500D01*
X93473713Y-70569500D01*
X93425042Y-70577208D01*
X93263760Y-70602753D01*
X93061585Y-70668444D01*
X92872179Y-70764951D01*
X92700213Y-70889890D01*
X92549890Y-71040213D01*
X92424951Y-71212179D01*
X92328444Y-71401585D01*
X92262753Y-71603760D01*
X92229500Y-71813713D01*
X92229500Y-72026286D01*
X92262599Y-72235269D01*
X92262754Y-72236243D01*
X92327937Y-72436856D01*
X92328444Y-72438414D01*
X92424951Y-72627820D01*
X92549890Y-72799786D01*
X92700213Y-72950109D01*
X92872182Y-73075050D01*
X92880946Y-73079516D01*
X92931742Y-73127491D01*
X92948536Y-73195312D01*
X92925998Y-73261447D01*
X92880946Y-73300484D01*
X92872182Y-73304949D01*
X92700213Y-73429890D01*
X92549890Y-73580213D01*
X92424948Y-73752184D01*
X92424947Y-73752185D01*
X92404765Y-73791795D01*
X92356791Y-73842591D01*
X92294281Y-73859500D01*
X89063303Y-73859500D01*
X88996264Y-73839815D01*
X88950509Y-73787011D01*
X88940565Y-73717853D01*
X88969590Y-73654297D01*
X88994412Y-73632398D01*
X88999507Y-73628993D01*
X89010289Y-73621789D01*
X89121789Y-73510289D01*
X89209394Y-73379179D01*
X89269737Y-73233497D01*
X89300500Y-73078842D01*
X89300500Y-72921158D01*
X89300500Y-72921155D01*
X89300499Y-72921153D01*
X89283661Y-72836503D01*
X89269737Y-72766503D01*
X89269735Y-72766498D01*
X89209397Y-72620827D01*
X89209390Y-72620814D01*
X89121789Y-72489711D01*
X89121786Y-72489707D01*
X89010292Y-72378213D01*
X89010288Y-72378210D01*
X88879185Y-72290609D01*
X88879172Y-72290602D01*
X88733501Y-72230264D01*
X88733489Y-72230261D01*
X88578845Y-72199500D01*
X88578842Y-72199500D01*
X88421158Y-72199500D01*
X88421155Y-72199500D01*
X88266510Y-72230261D01*
X88266498Y-72230264D01*
X88120827Y-72290602D01*
X88120814Y-72290609D01*
X87989712Y-72378209D01*
X87973275Y-72394647D01*
X87934739Y-72433182D01*
X87873419Y-72466666D01*
X87847060Y-72469500D01*
X84832127Y-72469500D01*
X84765088Y-72449815D01*
X84719333Y-72397011D01*
X84709389Y-72327853D01*
X84714196Y-72307182D01*
X84716444Y-72300264D01*
X84737246Y-72236243D01*
X84770500Y-72026287D01*
X84770500Y-71813713D01*
X84737246Y-71603757D01*
X84671557Y-71401588D01*
X84575051Y-71212184D01*
X84575049Y-71212181D01*
X84575048Y-71212179D01*
X84450109Y-71040213D01*
X84336569Y-70926673D01*
X84303084Y-70865350D01*
X84308068Y-70795658D01*
X84349940Y-70739725D01*
X84380915Y-70722810D01*
X84512331Y-70673796D01*
X84627546Y-70587546D01*
X84713796Y-70472331D01*
X84764091Y-70337483D01*
X84770500Y-70277873D01*
X84770499Y-68482128D01*
X84764091Y-68422517D01*
X84763239Y-68420234D01*
X84713797Y-68287671D01*
X84713793Y-68287664D01*
X84627547Y-68172455D01*
X84627544Y-68172452D01*
X84512335Y-68086206D01*
X84512328Y-68086202D01*
X84377482Y-68035908D01*
X84377483Y-68035908D01*
X84317883Y-68029501D01*
X84317881Y-68029500D01*
X84317873Y-68029500D01*
X84317864Y-68029500D01*
X82522129Y-68029500D01*
X82522123Y-68029501D01*
X82462516Y-68035908D01*
X82327671Y-68086202D01*
X82327664Y-68086206D01*
X82212455Y-68172452D01*
X82212452Y-68172455D01*
X82126206Y-68287664D01*
X82126202Y-68287671D01*
X82075908Y-68422517D01*
X82069501Y-68482116D01*
X82069501Y-68482123D01*
X82069500Y-68482135D01*
X82069500Y-70277870D01*
X82069501Y-70277876D01*
X82075908Y-70337483D01*
X82126202Y-70472328D01*
X82126206Y-70472335D01*
X82212452Y-70587544D01*
X82212455Y-70587547D01*
X82327664Y-70673793D01*
X82327671Y-70673797D01*
X82459082Y-70722810D01*
X82515016Y-70764681D01*
X82539433Y-70830145D01*
X82524582Y-70898418D01*
X82503431Y-70926673D01*
X82389889Y-71040215D01*
X82264951Y-71212179D01*
X82168444Y-71401585D01*
X82102753Y-71603760D01*
X82069500Y-71813713D01*
X82069500Y-72026286D01*
X82102599Y-72235269D01*
X82102754Y-72236243D01*
X82123555Y-72300263D01*
X82125804Y-72307182D01*
X82127799Y-72377023D01*
X82091719Y-72436856D01*
X82029018Y-72467684D01*
X82007873Y-72469500D01*
X81579766Y-72469500D01*
X81512727Y-72449815D01*
X81510875Y-72448602D01*
X81379185Y-72360609D01*
X81379172Y-72360602D01*
X81233501Y-72300264D01*
X81233489Y-72300261D01*
X81078845Y-72269500D01*
X81078842Y-72269500D01*
X80921158Y-72269500D01*
X80921155Y-72269500D01*
X80766510Y-72300261D01*
X80766498Y-72300264D01*
X80620827Y-72360602D01*
X80620814Y-72360609D01*
X80489711Y-72448210D01*
X80396165Y-72541756D01*
X80334841Y-72575240D01*
X80265150Y-72570256D01*
X80209217Y-72528384D01*
X80184800Y-72462919D01*
X80199652Y-72394647D01*
X80205386Y-72385177D01*
X80209392Y-72379182D01*
X80209397Y-72379172D01*
X80242083Y-72300261D01*
X80269737Y-72233497D01*
X80300500Y-72078842D01*
X80300500Y-71921158D01*
X80300500Y-71921155D01*
X80300499Y-71921153D01*
X80280080Y-71818500D01*
X80269737Y-71766503D01*
X80263279Y-71750911D01*
X80209397Y-71620827D01*
X80209390Y-71620814D01*
X80121789Y-71489711D01*
X80121786Y-71489707D01*
X80010292Y-71378213D01*
X80010288Y-71378210D01*
X79879185Y-71290609D01*
X79879172Y-71290602D01*
X79733501Y-71230264D01*
X79733489Y-71230261D01*
X79578845Y-71199500D01*
X79578842Y-71199500D01*
X79421158Y-71199500D01*
X79421155Y-71199500D01*
X79266510Y-71230261D01*
X79266498Y-71230264D01*
X79120827Y-71290602D01*
X79120814Y-71290609D01*
X78989711Y-71378210D01*
X78989707Y-71378213D01*
X78878213Y-71489707D01*
X78878210Y-71489711D01*
X78790609Y-71620814D01*
X78790602Y-71620827D01*
X78730264Y-71766498D01*
X78730261Y-71766510D01*
X78699500Y-71921153D01*
X78699500Y-72078846D01*
X78730261Y-72233489D01*
X78730264Y-72233501D01*
X78790602Y-72379172D01*
X78790609Y-72379185D01*
X78878602Y-72510874D01*
X78899480Y-72577551D01*
X78899500Y-72579765D01*
X78899500Y-78420234D01*
X78879815Y-78487273D01*
X78878602Y-78489125D01*
X78790609Y-78620814D01*
X78790602Y-78620827D01*
X78730264Y-78766498D01*
X78730261Y-78766510D01*
X78699500Y-78921153D01*
X78699500Y-79078846D01*
X78730261Y-79233489D01*
X78730264Y-79233501D01*
X78790602Y-79379172D01*
X78790609Y-79379185D01*
X78878210Y-79510288D01*
X78878213Y-79510292D01*
X78989707Y-79621786D01*
X78989711Y-79621789D01*
X79120814Y-79709390D01*
X79120827Y-79709397D01*
X79266498Y-79769735D01*
X79266503Y-79769737D01*
X79421153Y-79800499D01*
X79421156Y-79800500D01*
X79421158Y-79800500D01*
X79578844Y-79800500D01*
X79578845Y-79800499D01*
X79733497Y-79769737D01*
X79879179Y-79709394D01*
X80010289Y-79621789D01*
X80121789Y-79510289D01*
X80209394Y-79379179D01*
X80269737Y-79233497D01*
X80300500Y-79078842D01*
X80300500Y-78921158D01*
X80300500Y-78921155D01*
X80300499Y-78921153D01*
X80274531Y-78790606D01*
X80269737Y-78766503D01*
X80269735Y-78766498D01*
X80209397Y-78620827D01*
X80209390Y-78620814D01*
X80121398Y-78489125D01*
X80100520Y-78422447D01*
X80100500Y-78420234D01*
X80100500Y-77010759D01*
X80120185Y-76943720D01*
X80172989Y-76897965D01*
X80242147Y-76888021D01*
X80293391Y-76907657D01*
X80310553Y-76919124D01*
X80370821Y-76959394D01*
X80370823Y-76959395D01*
X80370827Y-76959397D01*
X80499577Y-77012726D01*
X80516503Y-77019737D01*
X80576031Y-77031578D01*
X80671849Y-77050638D01*
X80733760Y-77083023D01*
X80735339Y-77084574D01*
X81015139Y-77364374D01*
X81015149Y-77364385D01*
X81019479Y-77368715D01*
X81019480Y-77368716D01*
X81131284Y-77480520D01*
X81196917Y-77518412D01*
X81218095Y-77530639D01*
X81218097Y-77530641D01*
X81256151Y-77552611D01*
X81268215Y-77559577D01*
X81420943Y-77600500D01*
X82134281Y-77600500D01*
X82201320Y-77620185D01*
X82244765Y-77668205D01*
X82264947Y-77707814D01*
X82264948Y-77707815D01*
X82389890Y-77879786D01*
X82540213Y-78030109D01*
X82712182Y-78155050D01*
X82720946Y-78159516D01*
X82771742Y-78207491D01*
X82788536Y-78275312D01*
X82765998Y-78341447D01*
X82720946Y-78380484D01*
X82712182Y-78384949D01*
X82540213Y-78509890D01*
X82389890Y-78660213D01*
X82264951Y-78832179D01*
X82168444Y-79021585D01*
X82102753Y-79223760D01*
X82069500Y-79433713D01*
X82069500Y-79646286D01*
X82089111Y-79770109D01*
X82102754Y-79856243D01*
X82158705Y-80028443D01*
X82168444Y-80058414D01*
X82264951Y-80247820D01*
X82389890Y-80419786D01*
X82540213Y-80570109D01*
X82712182Y-80695050D01*
X82720946Y-80699516D01*
X82771742Y-80747491D01*
X82788536Y-80815312D01*
X82765998Y-80881447D01*
X82720946Y-80920484D01*
X82712182Y-80924949D01*
X82540213Y-81049890D01*
X82389890Y-81200213D01*
X82264951Y-81372179D01*
X82168444Y-81561585D01*
X82102753Y-81763760D01*
X82077859Y-81920939D01*
X82069500Y-81973713D01*
X82069500Y-82186287D01*
X82076706Y-82231783D01*
X82089111Y-82310109D01*
X82102754Y-82396243D01*
X82158705Y-82568443D01*
X82168444Y-82598414D01*
X82214704Y-82689205D01*
X82227600Y-82757875D01*
X82201323Y-82822615D01*
X82144217Y-82862872D01*
X82104219Y-82869500D01*
X79270097Y-82869500D01*
X79203058Y-82849815D01*
X79182416Y-82833181D01*
X78136819Y-81787584D01*
X78103334Y-81726261D01*
X78100500Y-81699903D01*
X78100500Y-76089060D01*
X78100501Y-76089047D01*
X78100501Y-75920944D01*
X78089051Y-75878213D01*
X78059577Y-75768216D01*
X78043120Y-75739711D01*
X77980524Y-75631290D01*
X77980521Y-75631286D01*
X77980520Y-75631284D01*
X76987589Y-74638354D01*
X76987588Y-74638352D01*
X76868717Y-74519481D01*
X76868716Y-74519480D01*
X76781904Y-74469360D01*
X76781904Y-74469359D01*
X76776725Y-74466370D01*
X76728507Y-74415805D01*
X76715282Y-74347199D01*
X76728236Y-74302686D01*
X76791557Y-74178412D01*
X76857246Y-73976243D01*
X76890500Y-73766287D01*
X76890500Y-73553713D01*
X76857246Y-73343757D01*
X76791557Y-73141588D01*
X76695051Y-72952184D01*
X76695049Y-72952181D01*
X76695048Y-72952179D01*
X76570109Y-72780213D01*
X76419786Y-72629890D01*
X76247817Y-72504949D01*
X76238504Y-72500204D01*
X76187707Y-72452230D01*
X76170912Y-72384409D01*
X76193449Y-72318274D01*
X76238507Y-72279232D01*
X76247555Y-72274622D01*
X76301716Y-72235270D01*
X76301717Y-72235270D01*
X75669408Y-71602962D01*
X75732993Y-71585925D01*
X75847007Y-71520099D01*
X75940099Y-71427007D01*
X76005925Y-71312993D01*
X76022962Y-71249409D01*
X76655270Y-71881717D01*
X76655270Y-71881716D01*
X76694622Y-71827554D01*
X76791095Y-71638217D01*
X76856757Y-71436130D01*
X76856757Y-71436127D01*
X76890000Y-71226246D01*
X76890000Y-71013753D01*
X76856757Y-70803872D01*
X76856757Y-70803869D01*
X76791095Y-70601782D01*
X76694624Y-70412449D01*
X76655270Y-70358282D01*
X76655269Y-70358282D01*
X76022962Y-70990590D01*
X76005925Y-70927007D01*
X75940099Y-70812993D01*
X75847007Y-70719901D01*
X75732993Y-70654075D01*
X75669409Y-70637037D01*
X76301716Y-70004728D01*
X76247547Y-69965373D01*
X76247547Y-69965372D01*
X76238500Y-69960763D01*
X76187706Y-69912788D01*
X76170912Y-69844966D01*
X76193451Y-69778832D01*
X76238508Y-69739793D01*
X76247816Y-69735051D01*
X76327007Y-69677515D01*
X76419786Y-69610109D01*
X76419788Y-69610106D01*
X76419792Y-69610104D01*
X76570104Y-69459792D01*
X76570106Y-69459788D01*
X76570109Y-69459786D01*
X76695048Y-69287820D01*
X76695047Y-69287820D01*
X76695051Y-69287816D01*
X76791557Y-69098412D01*
X76857246Y-68896243D01*
X76890500Y-68686287D01*
X76890500Y-68473713D01*
X76857246Y-68263757D01*
X76791557Y-68061588D01*
X76695051Y-67872184D01*
X76695049Y-67872181D01*
X76695048Y-67872179D01*
X76570109Y-67700213D01*
X76419786Y-67549890D01*
X76247820Y-67424951D01*
X76247115Y-67424591D01*
X76239054Y-67420485D01*
X76188259Y-67372512D01*
X76171463Y-67304692D01*
X76193999Y-67238556D01*
X76239054Y-67199515D01*
X76247816Y-67195051D01*
X76269789Y-67179086D01*
X76419786Y-67070109D01*
X76419788Y-67070106D01*
X76419792Y-67070104D01*
X76570104Y-66919792D01*
X76570106Y-66919788D01*
X76570109Y-66919786D01*
X76695048Y-66747820D01*
X76695047Y-66747820D01*
X76695051Y-66747816D01*
X76791557Y-66558412D01*
X76857246Y-66356243D01*
X76890500Y-66146287D01*
X76890500Y-65933713D01*
X76857246Y-65723757D01*
X76791557Y-65521588D01*
X76695051Y-65332184D01*
X76695049Y-65332181D01*
X76695048Y-65332179D01*
X76570109Y-65160213D01*
X76419786Y-65009890D01*
X76247820Y-64884951D01*
X76247115Y-64884591D01*
X76239054Y-64880485D01*
X76188259Y-64832512D01*
X76171463Y-64764692D01*
X76193999Y-64698556D01*
X76239054Y-64659515D01*
X76247816Y-64655051D01*
X76324276Y-64599500D01*
X76419786Y-64530109D01*
X76419788Y-64530106D01*
X76419792Y-64530104D01*
X76570104Y-64379792D01*
X76570106Y-64379788D01*
X76570109Y-64379786D01*
X76679086Y-64229789D01*
X76695051Y-64207816D01*
X76791557Y-64018412D01*
X76857246Y-63816243D01*
X76890500Y-63606287D01*
X76890500Y-63393713D01*
X76857246Y-63183757D01*
X76791557Y-62981588D01*
X76695051Y-62792184D01*
X76695049Y-62792181D01*
X76695048Y-62792179D01*
X76570109Y-62620213D01*
X76419786Y-62469890D01*
X76247817Y-62344949D01*
X76238504Y-62340204D01*
X76187707Y-62292230D01*
X76170912Y-62224409D01*
X76193449Y-62158274D01*
X76238507Y-62119232D01*
X76247555Y-62114622D01*
X76301716Y-62075270D01*
X76301717Y-62075270D01*
X75669408Y-61442962D01*
X75732993Y-61425925D01*
X75847007Y-61360099D01*
X75940099Y-61267007D01*
X76005925Y-61152993D01*
X76022962Y-61089408D01*
X76655270Y-61721717D01*
X76655270Y-61721716D01*
X76694622Y-61667554D01*
X76791095Y-61478217D01*
X76856757Y-61276130D01*
X76856757Y-61276127D01*
X76890000Y-61066246D01*
X76890000Y-60853753D01*
X76856757Y-60643872D01*
X76856757Y-60643869D01*
X76791095Y-60441782D01*
X76694624Y-60252449D01*
X76655270Y-60198282D01*
X76655269Y-60198282D01*
X76022962Y-60830590D01*
X76005925Y-60767007D01*
X75940099Y-60652993D01*
X75847007Y-60559901D01*
X75732993Y-60494075D01*
X75669409Y-60477037D01*
X76301716Y-59844728D01*
X76247547Y-59805373D01*
X76247547Y-59805372D01*
X76238500Y-59800763D01*
X76187706Y-59752788D01*
X76170912Y-59684966D01*
X76193451Y-59618832D01*
X76238508Y-59579793D01*
X76247816Y-59575051D01*
X76327007Y-59517515D01*
X76419786Y-59450109D01*
X76419788Y-59450106D01*
X76419792Y-59450104D01*
X76570104Y-59299792D01*
X76570106Y-59299788D01*
X76570109Y-59299786D01*
X76695048Y-59127820D01*
X76695047Y-59127820D01*
X76695051Y-59127816D01*
X76791557Y-58938412D01*
X76857246Y-58736243D01*
X76890500Y-58526287D01*
X76890500Y-58313713D01*
X76857246Y-58103757D01*
X76791557Y-57901588D01*
X76695051Y-57712184D01*
X76695049Y-57712181D01*
X76695048Y-57712179D01*
X76570109Y-57540213D01*
X76419786Y-57389890D01*
X76247820Y-57264951D01*
X76247115Y-57264591D01*
X76239054Y-57260485D01*
X76188259Y-57212512D01*
X76171463Y-57144692D01*
X76193999Y-57078556D01*
X76239054Y-57039515D01*
X76247816Y-57035051D01*
X76334138Y-56972335D01*
X76419786Y-56910109D01*
X76419788Y-56910106D01*
X76419792Y-56910104D01*
X76546583Y-56783313D01*
X76607906Y-56749828D01*
X76677598Y-56754812D01*
X76721945Y-56783313D01*
X80543896Y-60605264D01*
X80577381Y-60666587D01*
X80572397Y-60736279D01*
X80530525Y-60792212D01*
X80465061Y-60816629D01*
X80396788Y-60801777D01*
X80387328Y-60796050D01*
X80379184Y-60790609D01*
X80379172Y-60790602D01*
X80233501Y-60730264D01*
X80233489Y-60730261D01*
X80078845Y-60699500D01*
X80078842Y-60699500D01*
X79921158Y-60699500D01*
X79921155Y-60699500D01*
X79766510Y-60730261D01*
X79766498Y-60730264D01*
X79620827Y-60790602D01*
X79620814Y-60790609D01*
X79489711Y-60878210D01*
X79489707Y-60878213D01*
X79378213Y-60989707D01*
X79378210Y-60989711D01*
X79290609Y-61120814D01*
X79290602Y-61120827D01*
X79230264Y-61266498D01*
X79230261Y-61266510D01*
X79199500Y-61421153D01*
X79199500Y-61578846D01*
X79230261Y-61733489D01*
X79230264Y-61733501D01*
X79290602Y-61879172D01*
X79290609Y-61879185D01*
X79378602Y-62010874D01*
X79399480Y-62077551D01*
X79399500Y-62079765D01*
X79399500Y-68420234D01*
X79379815Y-68487273D01*
X79378602Y-68489125D01*
X79290609Y-68620814D01*
X79290602Y-68620827D01*
X79230264Y-68766498D01*
X79230261Y-68766510D01*
X79199500Y-68921153D01*
X79199500Y-69078846D01*
X79230261Y-69233489D01*
X79230264Y-69233501D01*
X79290602Y-69379172D01*
X79290609Y-69379185D01*
X79378210Y-69510288D01*
X79378213Y-69510292D01*
X79489707Y-69621786D01*
X79489711Y-69621789D01*
X79620814Y-69709390D01*
X79620827Y-69709397D01*
X79694211Y-69739793D01*
X79766503Y-69769737D01*
X79921153Y-69800499D01*
X79921156Y-69800500D01*
X79921158Y-69800500D01*
X80078844Y-69800500D01*
X80078845Y-69800499D01*
X80233497Y-69769737D01*
X80379179Y-69709394D01*
X80510289Y-69621789D01*
X80621789Y-69510289D01*
X80709394Y-69379179D01*
X80769737Y-69233497D01*
X80800500Y-69078842D01*
X80800500Y-68921158D01*
X80800500Y-68921155D01*
X80800499Y-68921153D01*
X80791957Y-68878210D01*
X80769737Y-68766503D01*
X80768974Y-68764660D01*
X80709397Y-68620827D01*
X80709390Y-68620814D01*
X80621398Y-68489125D01*
X80600520Y-68422447D01*
X80600500Y-68420234D01*
X80600500Y-62079765D01*
X80620185Y-62012726D01*
X80621398Y-62010874D01*
X80681347Y-61921155D01*
X80709394Y-61879179D01*
X80769737Y-61733497D01*
X80800500Y-61578842D01*
X80800500Y-61421158D01*
X80800500Y-61421155D01*
X80800499Y-61421153D01*
X80791957Y-61378210D01*
X80769737Y-61266503D01*
X80758785Y-61240062D01*
X80709397Y-61120827D01*
X80709392Y-61120818D01*
X80703953Y-61112678D01*
X80683074Y-61046001D01*
X80701557Y-60978620D01*
X80753535Y-60931929D01*
X80822505Y-60920751D01*
X80886569Y-60948636D01*
X80894735Y-60956104D01*
X82521578Y-62582947D01*
X82521585Y-62582953D01*
X82579704Y-62621786D01*
X82579706Y-62621787D01*
X82579709Y-62621789D01*
X82644505Y-62665084D01*
X82781087Y-62721658D01*
X82781091Y-62721658D01*
X82781092Y-62721659D01*
X82926079Y-62750500D01*
X82926082Y-62750500D01*
X82926083Y-62750500D01*
X83073917Y-62750500D01*
X86582351Y-62750500D01*
X86649390Y-62770185D01*
X86695145Y-62822989D01*
X86705089Y-62892147D01*
X86703969Y-62898690D01*
X86699500Y-62921158D01*
X86699500Y-63078846D01*
X86730261Y-63233489D01*
X86730264Y-63233501D01*
X86790602Y-63379172D01*
X86790609Y-63379185D01*
X86878210Y-63510288D01*
X86878213Y-63510292D01*
X86989707Y-63621786D01*
X86989711Y-63621789D01*
X87120814Y-63709390D01*
X87120827Y-63709397D01*
X87208230Y-63745599D01*
X87266503Y-63769737D01*
X87333580Y-63783079D01*
X87395490Y-63815463D01*
X87397069Y-63817015D01*
X88767873Y-65187819D01*
X88801358Y-65249142D01*
X88796374Y-65318834D01*
X88754502Y-65374767D01*
X88689038Y-65399184D01*
X88680192Y-65399500D01*
X84079766Y-65399500D01*
X84012727Y-65379815D01*
X84010875Y-65378602D01*
X83879185Y-65290609D01*
X83879172Y-65290602D01*
X83733501Y-65230264D01*
X83733489Y-65230261D01*
X83578845Y-65199500D01*
X83578842Y-65199500D01*
X83421158Y-65199500D01*
X83421155Y-65199500D01*
X83266510Y-65230261D01*
X83266498Y-65230264D01*
X83120827Y-65290602D01*
X83120814Y-65290609D01*
X82989711Y-65378210D01*
X82989707Y-65378213D01*
X82878213Y-65489707D01*
X82878210Y-65489711D01*
X82790609Y-65620814D01*
X82790602Y-65620827D01*
X82730264Y-65766498D01*
X82730261Y-65766510D01*
X82699500Y-65921153D01*
X82699500Y-66078846D01*
X82730261Y-66233489D01*
X82730264Y-66233501D01*
X82790602Y-66379172D01*
X82790609Y-66379185D01*
X82878210Y-66510288D01*
X82878213Y-66510292D01*
X82989707Y-66621786D01*
X82989711Y-66621789D01*
X83120814Y-66709390D01*
X83120827Y-66709397D01*
X83266498Y-66769735D01*
X83266503Y-66769737D01*
X83421153Y-66800499D01*
X83421156Y-66800500D01*
X83421158Y-66800500D01*
X83578844Y-66800500D01*
X83578845Y-66800499D01*
X83733497Y-66769737D01*
X83879179Y-66709394D01*
X83879185Y-66709390D01*
X84010875Y-66621398D01*
X84077553Y-66600520D01*
X84079766Y-66600500D01*
X90367060Y-66600500D01*
X90434099Y-66620185D01*
X90454742Y-66636820D01*
X90489707Y-66671786D01*
X90489711Y-66671789D01*
X90620814Y-66759390D01*
X90620827Y-66759397D01*
X90766498Y-66819735D01*
X90766503Y-66819737D01*
X90921153Y-66850499D01*
X90921156Y-66850500D01*
X90921158Y-66850500D01*
X91078844Y-66850500D01*
X91078845Y-66850499D01*
X91233497Y-66819737D01*
X91379179Y-66759394D01*
X91510289Y-66671789D01*
X91621789Y-66560289D01*
X91709394Y-66429179D01*
X91769737Y-66283497D01*
X91769737Y-66283496D01*
X91772068Y-66277869D01*
X91773378Y-66278411D01*
X91807754Y-66225939D01*
X91871562Y-66197472D01*
X91912324Y-66198742D01*
X91921158Y-66200500D01*
X91921160Y-66200500D01*
X92078844Y-66200500D01*
X92078845Y-66200499D01*
X92233497Y-66169737D01*
X92379179Y-66109394D01*
X92510289Y-66021789D01*
X92621789Y-65910289D01*
X92709394Y-65779179D01*
X92769737Y-65633497D01*
X92800500Y-65478842D01*
X92800500Y-65321158D01*
X92800500Y-65321155D01*
X92800499Y-65321153D01*
X92782419Y-65230261D01*
X92769737Y-65166503D01*
X92767130Y-65160208D01*
X92709397Y-65020827D01*
X92709390Y-65020814D01*
X92621789Y-64889711D01*
X92621786Y-64889707D01*
X92510292Y-64778213D01*
X92510288Y-64778210D01*
X92379185Y-64690609D01*
X92379172Y-64690602D01*
X92233501Y-64630264D01*
X92233489Y-64630261D01*
X92078845Y-64599500D01*
X92078842Y-64599500D01*
X91921158Y-64599500D01*
X91921155Y-64599500D01*
X91766510Y-64630261D01*
X91766498Y-64630264D01*
X91620827Y-64690602D01*
X91620820Y-64690606D01*
X91595551Y-64707491D01*
X91563955Y-64728602D01*
X91497279Y-64749480D01*
X91495065Y-64749500D01*
X90220808Y-64749500D01*
X90153769Y-64729815D01*
X90133127Y-64713181D01*
X88382127Y-62962181D01*
X88348642Y-62900858D01*
X88353626Y-62831166D01*
X88395498Y-62775233D01*
X88460962Y-62750816D01*
X88469808Y-62750500D01*
X92195396Y-62750500D01*
X92242844Y-62759937D01*
X92266503Y-62769737D01*
X92266508Y-62769738D01*
X92266511Y-62769739D01*
X92421153Y-62800499D01*
X92421156Y-62800500D01*
X92421158Y-62800500D01*
X92578844Y-62800500D01*
X92578845Y-62800499D01*
X92733497Y-62769737D01*
X92879179Y-62709394D01*
X93010289Y-62621789D01*
X93121789Y-62510289D01*
X93209394Y-62379179D01*
X93269737Y-62233497D01*
X93300500Y-62078842D01*
X93300500Y-61921158D01*
X93300500Y-61921155D01*
X93300499Y-61921153D01*
X93279470Y-61815433D01*
X93269737Y-61766503D01*
X93228860Y-61667816D01*
X93209397Y-61620827D01*
X93209390Y-61620814D01*
X93121789Y-61489711D01*
X93121786Y-61489707D01*
X93010292Y-61378213D01*
X93010288Y-61378210D01*
X92879185Y-61290609D01*
X92879172Y-61290602D01*
X92733501Y-61230264D01*
X92733489Y-61230261D01*
X92578845Y-61199500D01*
X92578842Y-61199500D01*
X92421158Y-61199500D01*
X92421155Y-61199500D01*
X92266511Y-61230260D01*
X92266506Y-61230262D01*
X92266504Y-61230262D01*
X92266503Y-61230263D01*
X92242844Y-61240062D01*
X92195396Y-61249500D01*
X83362230Y-61249500D01*
X83295191Y-61229815D01*
X83274549Y-61213181D01*
X77358413Y-55297045D01*
X77309179Y-55264150D01*
X77276355Y-55242218D01*
X77235495Y-55214916D01*
X77235494Y-55214915D01*
X77235492Y-55214914D01*
X77235490Y-55214913D01*
X77098917Y-55158343D01*
X77098907Y-55158340D01*
X76953920Y-55129500D01*
X76953918Y-55129500D01*
X76727221Y-55129500D01*
X76660182Y-55109815D01*
X76626903Y-55078385D01*
X76570107Y-55000211D01*
X76419786Y-54849890D01*
X76247820Y-54724951D01*
X76058414Y-54628444D01*
X76058413Y-54628443D01*
X76058412Y-54628443D01*
X75856243Y-54562754D01*
X75856241Y-54562753D01*
X75856240Y-54562753D01*
X75694957Y-54537208D01*
X75646287Y-54529500D01*
X75433713Y-54529500D01*
X75385042Y-54537208D01*
X75223760Y-54562753D01*
X75021585Y-54628444D01*
X74832179Y-54724951D01*
X74660215Y-54849889D01*
X74546673Y-54963431D01*
X74485350Y-54996915D01*
X74415658Y-54991931D01*
X74359725Y-54950059D01*
X74342810Y-54919082D01*
X74293797Y-54787671D01*
X74293793Y-54787664D01*
X74207547Y-54672455D01*
X74207544Y-54672452D01*
X74092335Y-54586206D01*
X74092328Y-54586202D01*
X73957482Y-54535908D01*
X73957483Y-54535908D01*
X73897883Y-54529501D01*
X73897881Y-54529500D01*
X73897873Y-54529500D01*
X73897864Y-54529500D01*
X72102129Y-54529500D01*
X72102123Y-54529501D01*
X72042516Y-54535908D01*
X71907671Y-54586202D01*
X71907664Y-54586206D01*
X71792455Y-54672452D01*
X71792452Y-54672455D01*
X71706206Y-54787664D01*
X71706202Y-54787671D01*
X71655908Y-54922517D01*
X71649501Y-54982116D01*
X71649500Y-54982135D01*
X71649500Y-56777870D01*
X71649501Y-56777876D01*
X71655908Y-56837483D01*
X71706202Y-56972328D01*
X71706206Y-56972335D01*
X71792452Y-57087544D01*
X71792455Y-57087547D01*
X71907664Y-57173793D01*
X71907671Y-57173797D01*
X72039082Y-57222810D01*
X72095016Y-57264681D01*
X72119433Y-57330145D01*
X72104582Y-57398418D01*
X72083431Y-57426673D01*
X71969889Y-57540215D01*
X71844951Y-57712179D01*
X71748444Y-57901585D01*
X71682753Y-58103760D01*
X71649500Y-58313713D01*
X71649500Y-58526286D01*
X71682754Y-58736244D01*
X71682754Y-58736247D01*
X71696491Y-58778523D01*
X71698486Y-58848364D01*
X71666241Y-58904522D01*
X71367747Y-59203016D01*
X71306424Y-59236501D01*
X71239427Y-59231709D01*
X71239330Y-59232032D01*
X71237909Y-59231601D01*
X71236732Y-59231517D01*
X71233702Y-59230325D01*
X71233494Y-59230261D01*
X71078845Y-59199500D01*
X71078842Y-59199500D01*
X70921158Y-59199500D01*
X70921155Y-59199500D01*
X70766510Y-59230261D01*
X70766498Y-59230264D01*
X70620827Y-59290602D01*
X70620814Y-59290609D01*
X70489711Y-59378210D01*
X70489707Y-59378213D01*
X70378213Y-59489707D01*
X70378210Y-59489711D01*
X70290609Y-59620814D01*
X70290602Y-59620827D01*
X70230264Y-59766498D01*
X70230261Y-59766510D01*
X70199500Y-59921153D01*
X70199500Y-60078846D01*
X70230261Y-60233489D01*
X70230264Y-60233501D01*
X70290602Y-60379172D01*
X70290609Y-60379185D01*
X70378210Y-60510288D01*
X70378213Y-60510292D01*
X70489707Y-60621786D01*
X70489711Y-60621789D01*
X70565450Y-60672397D01*
X70610255Y-60726009D01*
X70618962Y-60795334D01*
X70588807Y-60858362D01*
X70529364Y-60895081D01*
X70496560Y-60899499D01*
X70420943Y-60899499D01*
X70420939Y-60899499D01*
X70413332Y-60899500D01*
X70413331Y-60899499D01*
X70413331Y-60899500D01*
X69079766Y-60899500D01*
X69012727Y-60879815D01*
X69010875Y-60878602D01*
X68879185Y-60790609D01*
X68879172Y-60790602D01*
X68733501Y-60730264D01*
X68733489Y-60730261D01*
X68578845Y-60699500D01*
X68578842Y-60699500D01*
X68421158Y-60699500D01*
X68421155Y-60699500D01*
X68266510Y-60730261D01*
X68266498Y-60730264D01*
X68120827Y-60790602D01*
X68120814Y-60790609D01*
X67989711Y-60878210D01*
X67989707Y-60878213D01*
X67878213Y-60989707D01*
X67878210Y-60989711D01*
X67790609Y-61120814D01*
X67790602Y-61120827D01*
X67730264Y-61266498D01*
X67730261Y-61266510D01*
X67699500Y-61421153D01*
X67699500Y-61578846D01*
X67730261Y-61733489D01*
X67730264Y-61733501D01*
X67790602Y-61879172D01*
X67790609Y-61879185D01*
X67878210Y-62010288D01*
X67878213Y-62010292D01*
X67989707Y-62121786D01*
X67989711Y-62121789D01*
X68120814Y-62209390D01*
X68120827Y-62209397D01*
X68215094Y-62248443D01*
X68266503Y-62269737D01*
X68287884Y-62273990D01*
X68315624Y-62279508D01*
X68377535Y-62311892D01*
X68412109Y-62372608D01*
X68408370Y-62442377D01*
X68381706Y-62484697D01*
X68382076Y-62485001D01*
X68379661Y-62487942D01*
X68379123Y-62488798D01*
X68378212Y-62489708D01*
X68378210Y-62489711D01*
X68290609Y-62620814D01*
X68290602Y-62620827D01*
X68230264Y-62766498D01*
X68230261Y-62766510D01*
X68199500Y-62921153D01*
X68199500Y-63078846D01*
X68230261Y-63233489D01*
X68230264Y-63233501D01*
X68290602Y-63379172D01*
X68290609Y-63379185D01*
X68378602Y-63510874D01*
X68399480Y-63577551D01*
X68399500Y-63579765D01*
X68399500Y-65420234D01*
X68379815Y-65487273D01*
X68378602Y-65489125D01*
X68290609Y-65620814D01*
X68290602Y-65620827D01*
X68230264Y-65766498D01*
X68230261Y-65766510D01*
X68199500Y-65921153D01*
X68199500Y-66078846D01*
X68230261Y-66233489D01*
X68230264Y-66233501D01*
X68290602Y-66379172D01*
X68290609Y-66379185D01*
X68378210Y-66510288D01*
X68378213Y-66510292D01*
X68489707Y-66621786D01*
X68494202Y-66625475D01*
X68533537Y-66683221D01*
X68535408Y-66753066D01*
X68499221Y-66812834D01*
X68458864Y-66837514D01*
X68453330Y-66839577D01*
X68338215Y-66870423D01*
X68288095Y-66899360D01*
X68279125Y-66904538D01*
X68279124Y-66904539D01*
X68201285Y-66949479D01*
X68201282Y-66949481D01*
X67235339Y-67915425D01*
X67174016Y-67948910D01*
X67171850Y-67949361D01*
X67016508Y-67980261D01*
X67016498Y-67980264D01*
X66870827Y-68040602D01*
X66870814Y-68040609D01*
X66739711Y-68128210D01*
X66739707Y-68128213D01*
X66628213Y-68239707D01*
X66628210Y-68239711D01*
X66540609Y-68370814D01*
X66540602Y-68370827D01*
X66480264Y-68516498D01*
X66480261Y-68516510D01*
X66449500Y-68671153D01*
X66449500Y-68828846D01*
X66480261Y-68983489D01*
X66480264Y-68983501D01*
X66540602Y-69129172D01*
X66540609Y-69129185D01*
X66628210Y-69260288D01*
X66628213Y-69260292D01*
X66739707Y-69371786D01*
X66739711Y-69371789D01*
X66870814Y-69459390D01*
X66870827Y-69459397D01*
X67016498Y-69519735D01*
X67016503Y-69519737D01*
X67171153Y-69550499D01*
X67171156Y-69550500D01*
X67171158Y-69550500D01*
X67328844Y-69550500D01*
X67328845Y-69550499D01*
X67483497Y-69519737D01*
X67629179Y-69459394D01*
X67760289Y-69371789D01*
X67871789Y-69260289D01*
X67959394Y-69129179D01*
X67962854Y-69120827D01*
X67976012Y-69089059D01*
X68019737Y-68983497D01*
X68049360Y-68834574D01*
X68050638Y-68828150D01*
X68083023Y-68766239D01*
X68084518Y-68764716D01*
X68782416Y-68066819D01*
X68843739Y-68033334D01*
X68870097Y-68030500D01*
X69820902Y-68030500D01*
X69887941Y-68050185D01*
X69933696Y-68102989D01*
X69943640Y-68172147D01*
X69914615Y-68235703D01*
X69908587Y-68242176D01*
X69730529Y-68420234D01*
X69624217Y-68526546D01*
X69624214Y-68526548D01*
X69624215Y-68526549D01*
X69519478Y-68631285D01*
X69496462Y-68671153D01*
X69480096Y-68699500D01*
X69440423Y-68768215D01*
X69399499Y-68920943D01*
X69399499Y-68920945D01*
X69399499Y-69089046D01*
X69399500Y-69089059D01*
X69399500Y-72199676D01*
X69399499Y-72199694D01*
X69399499Y-72365400D01*
X69399498Y-72365400D01*
X69438321Y-72510289D01*
X69440423Y-72518131D01*
X69467324Y-72564724D01*
X69474730Y-72577551D01*
X69519479Y-72655060D01*
X69519481Y-72655063D01*
X69638349Y-72773931D01*
X69638355Y-72773936D01*
X71989579Y-75125160D01*
X72023064Y-75186483D01*
X72018080Y-75256175D01*
X71989583Y-75300518D01*
X71969899Y-75320203D01*
X71969892Y-75320211D01*
X71844949Y-75492182D01*
X71811084Y-75558645D01*
X71763109Y-75609441D01*
X71695288Y-75626235D01*
X71629153Y-75603697D01*
X71612919Y-75590030D01*
X71136820Y-75113931D01*
X71103335Y-75052608D01*
X71100501Y-75026250D01*
X71100501Y-74920945D01*
X71100501Y-74920943D01*
X71059577Y-74768215D01*
X71014479Y-74690104D01*
X70980520Y-74631284D01*
X70868716Y-74519480D01*
X70868715Y-74519479D01*
X70864385Y-74515149D01*
X70864374Y-74515139D01*
X66334574Y-69985339D01*
X66301089Y-69924016D01*
X66300638Y-69921849D01*
X66276499Y-69800499D01*
X66269737Y-69766503D01*
X66269735Y-69766498D01*
X66209397Y-69620827D01*
X66209390Y-69620814D01*
X66121789Y-69489711D01*
X66121786Y-69489707D01*
X66010292Y-69378213D01*
X66010288Y-69378210D01*
X65879185Y-69290609D01*
X65879172Y-69290602D01*
X65733501Y-69230264D01*
X65733489Y-69230261D01*
X65578845Y-69199500D01*
X65578842Y-69199500D01*
X65449097Y-69199500D01*
X65382058Y-69179815D01*
X65336303Y-69127011D01*
X65326359Y-69057853D01*
X65355384Y-68994297D01*
X65361403Y-68987830D01*
X65514663Y-68834571D01*
X65575983Y-68801089D01*
X65578150Y-68800638D01*
X65636085Y-68789113D01*
X65733497Y-68769737D01*
X65879179Y-68709394D01*
X66010289Y-68621789D01*
X66121789Y-68510289D01*
X66209394Y-68379179D01*
X66212854Y-68370827D01*
X66223067Y-68346166D01*
X66269737Y-68233497D01*
X66300500Y-68078842D01*
X66300500Y-67921158D01*
X66300500Y-67921155D01*
X66300499Y-67921153D01*
X66269738Y-67766510D01*
X66269738Y-67766508D01*
X66269737Y-67766503D01*
X66242277Y-67700208D01*
X66209397Y-67620827D01*
X66209390Y-67620814D01*
X66121789Y-67489711D01*
X66121786Y-67489707D01*
X66010292Y-67378213D01*
X66010288Y-67378210D01*
X65879185Y-67290609D01*
X65879172Y-67290602D01*
X65733501Y-67230264D01*
X65733489Y-67230261D01*
X65578845Y-67199500D01*
X65578842Y-67199500D01*
X65421158Y-67199500D01*
X65421155Y-67199500D01*
X65266510Y-67230261D01*
X65266498Y-67230264D01*
X65120827Y-67290602D01*
X65120814Y-67290609D01*
X64989711Y-67378210D01*
X64989707Y-67378213D01*
X64878213Y-67489707D01*
X64878210Y-67489711D01*
X64790609Y-67620814D01*
X64790602Y-67620827D01*
X64730264Y-67766498D01*
X64730261Y-67766508D01*
X64699361Y-67921850D01*
X64666976Y-67983761D01*
X64665425Y-67985339D01*
X63787584Y-68863181D01*
X63726261Y-68896666D01*
X63699903Y-68899500D01*
X61579766Y-68899500D01*
X61512727Y-68879815D01*
X61510875Y-68878602D01*
X61379185Y-68790609D01*
X61379172Y-68790602D01*
X61233501Y-68730264D01*
X61233489Y-68730261D01*
X61078845Y-68699500D01*
X61078842Y-68699500D01*
X60921158Y-68699500D01*
X60921155Y-68699500D01*
X60766510Y-68730261D01*
X60766498Y-68730264D01*
X60620827Y-68790602D01*
X60620814Y-68790609D01*
X60489711Y-68878210D01*
X60489707Y-68878213D01*
X60378213Y-68989707D01*
X60378210Y-68989711D01*
X60290609Y-69120814D01*
X60290602Y-69120827D01*
X60230264Y-69266498D01*
X60230261Y-69266510D01*
X60199500Y-69421153D01*
X50500500Y-69421153D01*
X50500500Y-50624500D01*
X50520185Y-50557461D01*
X50572989Y-50511706D01*
X50624500Y-50500500D01*
X109375500Y-50500500D01*
X109442539Y-50520185D01*
G37*
%TD.AperFunction*%
%TD*%
M02*
