%TF.GenerationSoftware,KiCad,Pcbnew,10.0.0*%
%TF.CreationDate,2026-04-05T18:00:04-04:00*%
%TF.ProjectId,DiceMaster_Router,44696365-4d61-4737-9465-725f526f7574,rev?*%
%TF.SameCoordinates,Original*%
%TF.FileFunction,Soldermask,Bot*%
%TF.FilePolarity,Negative*%
%FSLAX46Y46*%
G04 Gerber Fmt 4.6, Leading zero omitted, Abs format (unit mm)*
G04 Created by KiCad (PCBNEW 10.0.0) date 2026-04-05 18:00:04*
%MOMM*%
%LPD*%
G01*
G04 APERTURE LIST*
%ADD10R,1.700000X1.700000*%
%ADD11C,1.700000*%
%ADD12O,1.700000X1.700000*%
G04 APERTURE END LIST*
D10*
%TO.C,J1*%
X73000000Y-55880000D03*
D11*
X75540000Y-55880000D03*
X73000000Y-58420000D03*
X75540000Y-58420000D03*
X73000000Y-60960000D03*
X75540000Y-60960000D03*
X73000000Y-63500000D03*
X75540000Y-63500000D03*
X73000000Y-66040000D03*
X75540000Y-66040000D03*
X73000000Y-68580000D03*
X75540000Y-68580000D03*
X73000000Y-71120000D03*
X75540000Y-71120000D03*
X73000000Y-73660000D03*
X75540000Y-73660000D03*
X73000000Y-76200000D03*
X75540000Y-76200000D03*
X73000000Y-78740000D03*
X75540000Y-78740000D03*
X73000000Y-81280000D03*
X75540000Y-81280000D03*
X73000000Y-83820000D03*
X75540000Y-83820000D03*
X73000000Y-86360000D03*
X75540000Y-86360000D03*
X73000000Y-88900000D03*
X75540000Y-88900000D03*
X73000000Y-91440000D03*
X75540000Y-91440000D03*
X73000000Y-93980000D03*
X75540000Y-93980000D03*
X73000000Y-96520000D03*
X75540000Y-96520000D03*
X73000000Y-99060000D03*
X75540000Y-99060000D03*
X73000000Y-101600000D03*
X75540000Y-101600000D03*
X73000000Y-104140000D03*
X75540000Y-104140000D03*
%TD*%
D12*
%TO.C,U1*%
X93580000Y-82080000D03*
X93580000Y-79540000D03*
X93580000Y-77000000D03*
X93580000Y-74460000D03*
X93580000Y-71920000D03*
X83420000Y-84620000D03*
X83420000Y-82080000D03*
X83420000Y-79540000D03*
X83420000Y-77000000D03*
X83420000Y-74460000D03*
X83420000Y-71920000D03*
D10*
X83420000Y-69380000D03*
%TD*%
M02*
