M48
; DRILL file KiCad 10.0.0 date 2026-04-05T18:00:13
; FORMAT={-:-/ absolute / metric / decimal}
; #@! TF.CreationDate,2026-04-05T18:00:13-04:00
; #@! TF.GenerationSoftware,Kicad,Pcbnew,10.0.0
; #@! TF.FileFunction,Plated,1,2,PTH
FMAT,2
METRIC
; #@! TA.AperFunction,Plated,PTH,ViaDrill
T1C0.300
; #@! TA.AperFunction,Plated,PTH,ComponentDrill
T2C1.000
%
G90
G05
T1
X59.0Y-106.0
X59.0Y-107.0
X59.0Y-108.0
X61.0Y-69.5
X63.0Y-82.0
X64.5Y-73.5
X64.5Y-91.0
X64.5Y-98.0
X65.5Y-68.0
X65.5Y-70.0
X65.5Y-73.5
X65.5Y-79.5
X65.5Y-90.0
X66.5Y-89.0
X66.5Y-100.0
X67.25Y-68.75
X67.5Y-106.4
X68.5Y-61.5
X69.0Y-63.0
X69.0Y-66.0
X69.0Y-107.0
X69.0Y-108.0
X70.5Y-101.0
X71.0Y-60.0
X79.5Y-72.0
X79.5Y-79.0
X80.0Y-61.5
X80.0Y-69.0
X80.75Y-76.25
X81.0Y-73.07
X83.5Y-66.0
X85.0Y-89.0
X86.5Y-87.0
X87.5Y-63.0
X87.5Y-76.5
X87.5Y-83.0
X88.5Y-73.0
X90.0Y-86.0
X91.0Y-66.05
X91.0Y-85.0
X92.0Y-65.4
X92.5Y-62.0
X98.0Y-71.0
X98.0Y-76.0
X98.5Y-83.5
X98.75Y-84.75
X108.5Y-81.0
X108.5Y-92.0
T2
X73.0Y-55.88
X73.0Y-58.42
X73.0Y-60.96
X73.0Y-63.5
X73.0Y-66.04
X73.0Y-68.58
X73.0Y-71.12
X73.0Y-73.66
X73.0Y-76.2
X73.0Y-78.74
X73.0Y-81.28
X73.0Y-83.82
X73.0Y-86.36
X73.0Y-88.9
X73.0Y-91.44
X73.0Y-93.98
X73.0Y-96.52
X73.0Y-99.06
X73.0Y-101.6
X73.0Y-104.14
X75.54Y-55.88
X75.54Y-58.42
X75.54Y-60.96
X75.54Y-63.5
X75.54Y-66.04
X75.54Y-68.58
X75.54Y-71.12
X75.54Y-73.66
X75.54Y-76.2
X75.54Y-78.74
X75.54Y-81.28
X75.54Y-83.82
X75.54Y-86.36
X75.54Y-88.9
X75.54Y-91.44
X75.54Y-93.98
X75.54Y-96.52
X75.54Y-99.06
X75.54Y-101.6
X75.54Y-104.14
X83.42Y-69.38
X83.42Y-71.92
X83.42Y-74.46
X83.42Y-77.0
X83.42Y-79.54
X83.42Y-82.08
X83.42Y-84.62
X93.58Y-71.92
X93.58Y-74.46
X93.58Y-77.0
X93.58Y-79.54
X93.58Y-82.08
M30
