%TF.GenerationSoftware,KiCad,Pcbnew,10.0.0*%
%TF.CreationDate,2026-04-05T18:00:04-04:00*%
%TF.ProjectId,DiceMaster_Router,44696365-4d61-4737-9465-725f526f7574,rev?*%
%TF.SameCoordinates,Original*%
%TF.FileFunction,Paste,Top*%
%TF.FilePolarity,Positive*%
%FSLAX46Y46*%
G04 Gerber Fmt 4.6, Leading zero omitted, Abs format (unit mm)*
G04 Created by KiCad (PCBNEW 10.0.0) date 2026-04-05 18:00:04*
%MOMM*%
%LPD*%
G01*
G04 APERTURE LIST*
G04 Aperture macros list*
%AMRoundRect*
0 Rectangle with rounded corners*
0 $1 Rounding radius*
0 $2 $3 $4 $5 $6 $7 $8 $9 X,Y pos of 4 corners*
0 Add a 4 corners polygon primitive as box body*
4,1,4,$2,$3,$4,$5,$6,$7,$8,$9,$2,$3,0*
0 Add four circle primitives for the rounded corners*
1,1,$1+$1,$2,$3*
1,1,$1+$1,$4,$5*
1,1,$1+$1,$6,$7*
1,1,$1+$1,$8,$9*
0 Add four rect primitives between the rounded corners*
20,1,$1+$1,$2,$3,$4,$5,0*
20,1,$1+$1,$4,$5,$6,$7,0*
20,1,$1+$1,$6,$7,$8,$9,0*
20,1,$1+$1,$8,$9,$2,$3,0*%
G04 Aperture macros list end*
%ADD10RoundRect,0.150000X0.150000X0.700000X-0.150000X0.700000X-0.150000X-0.700000X0.150000X-0.700000X0*%
%ADD11RoundRect,0.250000X0.250000X1.100000X-0.250000X1.100000X-0.250000X-1.100000X0.250000X-1.100000X0*%
%ADD12RoundRect,0.150000X0.700000X-0.150000X0.700000X0.150000X-0.700000X0.150000X-0.700000X-0.150000X0*%
%ADD13RoundRect,0.250000X1.100000X-0.250000X1.100000X0.250000X-1.100000X0.250000X-1.100000X-0.250000X0*%
%ADD14RoundRect,0.140000X-0.170000X0.140000X-0.170000X-0.140000X0.170000X-0.140000X0.170000X0.140000X0*%
%ADD15RoundRect,0.150000X-0.700000X0.150000X-0.700000X-0.150000X0.700000X-0.150000X0.700000X0.150000X0*%
%ADD16RoundRect,0.250000X-1.100000X0.250000X-1.100000X-0.250000X1.100000X-0.250000X1.100000X0.250000X0*%
%ADD17RoundRect,0.135000X0.135000X0.185000X-0.135000X0.185000X-0.135000X-0.185000X0.135000X-0.185000X0*%
%ADD18RoundRect,0.135000X-0.185000X0.135000X-0.185000X-0.135000X0.185000X-0.135000X0.185000X0.135000X0*%
%ADD19RoundRect,0.150000X-0.587500X-0.150000X0.587500X-0.150000X0.587500X0.150000X-0.587500X0.150000X0*%
%ADD20RoundRect,0.250000X0.250000X0.475000X-0.250000X0.475000X-0.250000X-0.475000X0.250000X-0.475000X0*%
%ADD21RoundRect,0.135000X-0.135000X-0.185000X0.135000X-0.185000X0.135000X0.185000X-0.135000X0.185000X0*%
%ADD22RoundRect,0.250000X-0.475000X0.250000X-0.475000X-0.250000X0.475000X-0.250000X0.475000X0.250000X0*%
%ADD23RoundRect,0.112500X0.112500X-0.187500X0.112500X0.187500X-0.112500X0.187500X-0.112500X-0.187500X0*%
%ADD24R,1.500000X4.000000*%
%ADD25RoundRect,0.150000X-0.150000X-0.700000X0.150000X-0.700000X0.150000X0.700000X-0.150000X0.700000X0*%
%ADD26RoundRect,0.250000X-0.250000X-1.100000X0.250000X-1.100000X0.250000X1.100000X-0.250000X1.100000X0*%
%ADD27R,0.600000X1.250000*%
G04 APERTURE END LIST*
D10*
%TO.C,J_A1*%
X65125000Y-58350000D03*
X63875000Y-58350000D03*
X62625000Y-58350000D03*
X61375000Y-58350000D03*
X60125000Y-58350000D03*
X58875000Y-58350000D03*
D11*
X66975000Y-55150000D03*
X57025000Y-55150000D03*
%TD*%
D12*
%TO.C,J_E1*%
X102500000Y-75250000D03*
X102500000Y-74000000D03*
X102500000Y-72750000D03*
X102500000Y-71500000D03*
X102500000Y-70250000D03*
X102500000Y-69000000D03*
D13*
X105700000Y-77100000D03*
X105700000Y-67150000D03*
%TD*%
D14*
%TO.C,C_BST1*%
X107500000Y-98980000D03*
X107500000Y-98020000D03*
%TD*%
D15*
%TO.C,J_BTN1*%
X58350000Y-64500000D03*
X58350000Y-65750000D03*
X58350000Y-67000000D03*
X58350000Y-68250000D03*
X58350000Y-69500000D03*
D16*
X55150000Y-62650000D03*
X55150000Y-71350000D03*
%TD*%
D17*
%TO.C,R_FG1*%
X93490000Y-54000000D03*
X94510000Y-54000000D03*
%TD*%
D18*
%TO.C,R_FPD1*%
X94500000Y-57010000D03*
X94500000Y-55990000D03*
%TD*%
D19*
%TO.C,Q_FAN1*%
X98437500Y-55000000D03*
X96562500Y-55950000D03*
X96562500Y-54050000D03*
%TD*%
D17*
%TO.C,R_BOT1*%
X100490000Y-99000000D03*
X101510000Y-99000000D03*
%TD*%
D20*
%TO.C,C_OUT3*%
X94500000Y-92500000D03*
X92600000Y-92500000D03*
%TD*%
%TO.C,C_OUT1*%
X92600000Y-97500000D03*
X94500000Y-97500000D03*
%TD*%
%TO.C,C_OUT2*%
X94500000Y-95000000D03*
X92600000Y-95000000D03*
%TD*%
D21*
%TO.C,R_Top1*%
X100490000Y-101000000D03*
X101510000Y-101000000D03*
%TD*%
D22*
%TO.C,C3*%
X104500000Y-106050000D03*
X104500000Y-107950000D03*
%TD*%
D12*
%TO.C,J_F1*%
X102300000Y-89750000D03*
X102300000Y-88500000D03*
X102300000Y-87250000D03*
X102300000Y-86000000D03*
X102300000Y-84750000D03*
X102300000Y-83500000D03*
D13*
X105500000Y-91600000D03*
X105500000Y-81650000D03*
%TD*%
D15*
%TO.C,J_C1*%
X58200000Y-89850000D03*
X58200000Y-91100000D03*
X58200000Y-92350000D03*
X58200000Y-93600000D03*
X58200000Y-94850000D03*
X58200000Y-96100000D03*
D16*
X55000000Y-88000000D03*
X55000000Y-97950000D03*
%TD*%
D15*
%TO.C,J_B1*%
X58350000Y-76375000D03*
X58350000Y-77625000D03*
X58350000Y-78875000D03*
X58350000Y-80125000D03*
X58350000Y-81375000D03*
X58350000Y-82625000D03*
D16*
X55150000Y-74525000D03*
X55150000Y-84475000D03*
%TD*%
D23*
%TO.C,D_FAN1*%
X98500000Y-60050000D03*
X98500000Y-57950000D03*
%TD*%
D10*
%TO.C,J_D1*%
X88125000Y-59200000D03*
X86875000Y-59200000D03*
X85625000Y-59200000D03*
X84375000Y-59200000D03*
X83125000Y-59200000D03*
X81875000Y-59200000D03*
D11*
X89975000Y-56000000D03*
X80025000Y-56000000D03*
%TD*%
D12*
%TO.C,J_FAN1*%
X101800000Y-59600000D03*
X101800000Y-58350000D03*
D13*
X105000000Y-61450000D03*
X105000000Y-56500000D03*
%TD*%
D24*
%TO.C,L1*%
X100550000Y-95000000D03*
X96950000Y-95000000D03*
%TD*%
D25*
%TO.C,J_SWITCH1*%
X93250000Y-102650000D03*
X94500000Y-102650000D03*
X95750000Y-102650000D03*
D26*
X91400000Y-105850000D03*
X97600000Y-105850000D03*
%TD*%
D25*
%TO.C,PiSugarPowerConnector1*%
X83350000Y-102800000D03*
X84600000Y-102800000D03*
D26*
X81500000Y-106000000D03*
X86450000Y-106000000D03*
%TD*%
D22*
%TO.C,C1*%
X107000000Y-106000000D03*
X107000000Y-107900000D03*
%TD*%
D27*
%TO.C,IC1*%
X105450000Y-98000000D03*
X104500000Y-98000000D03*
X103550000Y-98000000D03*
X103550000Y-100500000D03*
X104500000Y-100500000D03*
X105450000Y-100500000D03*
%TD*%
M02*
